G04*
G04 #@! TF.GenerationSoftware,Altium Limited,Altium Designer,24.8.2 (39)*
G04*
G04 Layer_Color=16711935*
%FSLAX25Y25*%
%MOIN*%
G70*
G04*
G04 #@! TF.SameCoordinates,7DA90572-2472-42F9-BF80-4CDDFEAFDCCF*
G04*
G04*
G04 #@! TF.FilePolarity,Positive*
G04*
G01*
G75*
%ADD11C,0.00787*%
G36*
X387582Y358500D02*
X387273D01*
Y360471D01*
X387267Y360468D01*
X387254Y360455D01*
X387228Y360432D01*
X387195Y360406D01*
X387152Y360373D01*
X387100Y360337D01*
X387044Y360297D01*
X386978Y360258D01*
X386975D01*
X386972Y360255D01*
X386962Y360248D01*
X386949Y360242D01*
X386913Y360222D01*
X386870Y360199D01*
X386821Y360173D01*
X386765Y360146D01*
X386709Y360120D01*
X386653Y360097D01*
Y360399D01*
X386657D01*
X386667Y360406D01*
X386680Y360412D01*
X386696Y360422D01*
X386719Y360432D01*
X386745Y360448D01*
X386808Y360481D01*
X386877Y360524D01*
X386955Y360576D01*
X387031Y360632D01*
X387106Y360694D01*
X387109Y360698D01*
X387116Y360701D01*
X387126Y360711D01*
X387139Y360724D01*
X387172Y360757D01*
X387214Y360803D01*
X387257Y360852D01*
X387303Y360911D01*
X387346Y360970D01*
X387382Y361032D01*
X387582D01*
Y358500D01*
D02*
G37*
G36*
X385204Y361019D02*
X385233D01*
X385269Y361016D01*
X385309Y361012D01*
X385391Y361006D01*
X385476Y360993D01*
X385558Y360976D01*
X385597Y360966D01*
X385630Y360953D01*
X385633D01*
X385637Y360950D01*
X385647Y360947D01*
X385660Y360940D01*
X385692Y360924D01*
X385732Y360898D01*
X385778Y360865D01*
X385824Y360822D01*
X385870Y360770D01*
X385912Y360711D01*
Y360707D01*
X385915Y360704D01*
X385922Y360694D01*
X385929Y360681D01*
X385945Y360645D01*
X385965Y360599D01*
X385984Y360543D01*
X386001Y360478D01*
X386014Y360406D01*
X386017Y360330D01*
Y360327D01*
Y360317D01*
Y360304D01*
X386014Y360284D01*
X386011Y360261D01*
X386007Y360235D01*
X385994Y360173D01*
X385975Y360101D01*
X385945Y360025D01*
X385925Y359989D01*
X385902Y359950D01*
X385873Y359914D01*
X385843Y359878D01*
X385840Y359874D01*
X385837Y359871D01*
X385824Y359861D01*
X385810Y359848D01*
X385791Y359835D01*
X385768Y359819D01*
X385742Y359799D01*
X385712Y359779D01*
X385676Y359759D01*
X385637Y359740D01*
X385591Y359720D01*
X385542Y359700D01*
X385489Y359684D01*
X385433Y359668D01*
X385371Y359654D01*
X385305Y359645D01*
X385312Y359641D01*
X385328Y359635D01*
X385351Y359622D01*
X385381Y359605D01*
X385446Y359563D01*
X385476Y359540D01*
X385506Y359517D01*
X385509D01*
X385512Y359510D01*
X385532Y359494D01*
X385558Y359464D01*
X385597Y359425D01*
X385640Y359379D01*
X385686Y359320D01*
X385735Y359254D01*
X385784Y359182D01*
X386221Y358500D01*
X385801D01*
X385469Y359021D01*
Y359025D01*
X385463Y359031D01*
X385456Y359044D01*
X385446Y359057D01*
X385433Y359077D01*
X385417Y359100D01*
X385384Y359149D01*
X385345Y359205D01*
X385305Y359261D01*
X385266Y359317D01*
X385227Y359366D01*
X385223Y359372D01*
X385210Y359386D01*
X385194Y359408D01*
X385171Y359432D01*
X385145Y359461D01*
X385115Y359490D01*
X385086Y359513D01*
X385056Y359536D01*
X385053Y359540D01*
X385043Y359543D01*
X385030Y359553D01*
X385010Y359563D01*
X384987Y359576D01*
X384961Y359586D01*
X384905Y359605D01*
X384902D01*
X384895Y359609D01*
X384882D01*
X384863Y359612D01*
X384836Y359615D01*
X384804D01*
X384768Y359618D01*
X384334D01*
Y358500D01*
X384000D01*
Y361022D01*
X385174D01*
X385204Y361019D01*
D02*
G37*
G36*
X358065Y373326D02*
X358062Y373296D01*
Y373267D01*
X358058Y373231D01*
X358055Y373191D01*
X358049Y373109D01*
X358035Y373024D01*
X358019Y372942D01*
X358009Y372903D01*
X357996Y372870D01*
Y372867D01*
X357993Y372863D01*
X357990Y372853D01*
X357983Y372840D01*
X357966Y372808D01*
X357940Y372768D01*
X357908Y372722D01*
X357865Y372676D01*
X357812Y372630D01*
X357753Y372588D01*
X357750D01*
X357747Y372585D01*
X357737Y372578D01*
X357724Y372571D01*
X357688Y372555D01*
X357642Y372535D01*
X357586Y372516D01*
X357520Y372499D01*
X357448Y372486D01*
X357373Y372483D01*
X357369D01*
X357360D01*
X357347D01*
X357327Y372486D01*
X357304Y372489D01*
X357278Y372493D01*
X357215Y372506D01*
X357143Y372526D01*
X357068Y372555D01*
X357032Y372575D01*
X356992Y372598D01*
X356956Y372627D01*
X356920Y372657D01*
X356917Y372660D01*
X356914Y372663D01*
X356904Y372676D01*
X356891Y372690D01*
X356878Y372709D01*
X356861Y372732D01*
X356841Y372758D01*
X356822Y372788D01*
X356802Y372824D01*
X356782Y372863D01*
X356763Y372909D01*
X356743Y372958D01*
X356727Y373011D01*
X356710Y373067D01*
X356697Y373129D01*
X356687Y373195D01*
X356684Y373188D01*
X356678Y373172D01*
X356664Y373149D01*
X356648Y373119D01*
X356605Y373054D01*
X356582Y373024D01*
X356559Y372994D01*
Y372991D01*
X356553Y372988D01*
X356536Y372968D01*
X356507Y372942D01*
X356468Y372903D01*
X356422Y372860D01*
X356363Y372814D01*
X356297Y372765D01*
X356225Y372716D01*
X355543Y372280D01*
Y372699D01*
X356064Y373031D01*
X356067D01*
X356074Y373037D01*
X356087Y373044D01*
X356100Y373054D01*
X356120Y373067D01*
X356143Y373083D01*
X356192Y373116D01*
X356248Y373155D01*
X356304Y373195D01*
X356359Y373234D01*
X356409Y373273D01*
X356415Y373277D01*
X356428Y373290D01*
X356451Y373306D01*
X356474Y373329D01*
X356504Y373355D01*
X356533Y373385D01*
X356556Y373414D01*
X356579Y373444D01*
X356582Y373447D01*
X356586Y373457D01*
X356595Y373470D01*
X356605Y373490D01*
X356618Y373513D01*
X356628Y373539D01*
X356648Y373595D01*
Y373598D01*
X356651Y373605D01*
Y373618D01*
X356655Y373637D01*
X356658Y373664D01*
Y373696D01*
X356661Y373732D01*
Y374166D01*
X355543D01*
Y374500D01*
X358065D01*
Y373326D01*
D02*
G37*
G36*
X356225Y371758D02*
X356222D01*
X356215Y371755D01*
X356202D01*
X356186Y371751D01*
X356166Y371745D01*
X356143Y371738D01*
X356094Y371725D01*
X356035Y371702D01*
X355976Y371673D01*
X355920Y371637D01*
X355871Y371594D01*
X355867Y371587D01*
X355854Y371571D01*
X355835Y371542D01*
X355815Y371505D01*
X355792Y371460D01*
X355775Y371404D01*
X355762Y371345D01*
X355756Y371276D01*
Y371253D01*
X355759Y371236D01*
X355762Y371220D01*
X355766Y371197D01*
X355775Y371145D01*
X355795Y371082D01*
X355828Y371020D01*
X355844Y370987D01*
X355867Y370954D01*
X355894Y370925D01*
X355923Y370895D01*
X355926Y370892D01*
X355930Y370889D01*
X355940Y370882D01*
X355953Y370872D01*
X355969Y370859D01*
X355992Y370846D01*
X356015Y370833D01*
X356041Y370817D01*
X356107Y370790D01*
X356182Y370764D01*
X356271Y370748D01*
X356317Y370741D01*
X356369D01*
X356372D01*
X356382D01*
X356395D01*
X356412Y370744D01*
X356435D01*
X356461Y370748D01*
X356520Y370761D01*
X356589Y370777D01*
X356658Y370803D01*
X356727Y370840D01*
X356760Y370863D01*
X356789Y370889D01*
X356792D01*
X356796Y370895D01*
X356802Y370905D01*
X356812Y370915D01*
X356838Y370948D01*
X356868Y370994D01*
X356894Y371049D01*
X356920Y371115D01*
X356937Y371194D01*
X356943Y371233D01*
Y371305D01*
X356940Y371332D01*
X356933Y371371D01*
X356927Y371410D01*
X356914Y371456D01*
X356894Y371505D01*
X356871Y371551D01*
X356868Y371558D01*
X356858Y371571D01*
X356845Y371591D01*
X356822Y371617D01*
X356799Y371646D01*
X356766Y371679D01*
X356733Y371709D01*
X356694Y371735D01*
X356736Y372027D01*
X358032Y371784D01*
Y370531D01*
X357737D01*
Y371538D01*
X357055Y371673D01*
X357058Y371669D01*
X357061Y371663D01*
X357071Y371650D01*
X357081Y371633D01*
X357091Y371614D01*
X357107Y371587D01*
X357120Y371561D01*
X357137Y371528D01*
X357166Y371456D01*
X357189Y371377D01*
X357209Y371289D01*
X357212Y371243D01*
X357215Y371197D01*
Y371164D01*
X357212Y371141D01*
X357209Y371115D01*
X357202Y371082D01*
X357196Y371046D01*
X357186Y371004D01*
X357176Y370961D01*
X357160Y370918D01*
X357140Y370872D01*
X357120Y370823D01*
X357091Y370777D01*
X357061Y370731D01*
X357025Y370685D01*
X356986Y370643D01*
X356982Y370639D01*
X356976Y370633D01*
X356963Y370623D01*
X356943Y370607D01*
X356920Y370590D01*
X356894Y370571D01*
X356861Y370548D01*
X356825Y370528D01*
X356786Y370505D01*
X356740Y370485D01*
X356694Y370466D01*
X356641Y370449D01*
X356582Y370433D01*
X356523Y370423D01*
X356461Y370416D01*
X356395Y370413D01*
X356392D01*
X356379D01*
X356363D01*
X356340Y370416D01*
X356310Y370420D01*
X356274Y370423D01*
X356235Y370430D01*
X356195Y370439D01*
X356100Y370462D01*
X356051Y370479D01*
X356002Y370498D01*
X355953Y370521D01*
X355903Y370548D01*
X355854Y370577D01*
X355805Y370613D01*
X355802Y370617D01*
X355792Y370623D01*
X355775Y370639D01*
X355759Y370659D01*
X355733Y370682D01*
X355710Y370712D01*
X355680Y370748D01*
X355654Y370787D01*
X355625Y370833D01*
X355595Y370882D01*
X355572Y370935D01*
X355549Y370994D01*
X355529Y371059D01*
X355513Y371128D01*
X355503Y371200D01*
X355500Y371276D01*
Y371309D01*
X355503Y371332D01*
X355506Y371361D01*
X355510Y371397D01*
X355516Y371433D01*
X355523Y371476D01*
X355546Y371564D01*
X355562Y371610D01*
X355582Y371656D01*
X355602Y371706D01*
X355628Y371751D01*
X355657Y371794D01*
X355690Y371837D01*
X355694Y371840D01*
X355700Y371847D01*
X355710Y371856D01*
X355726Y371869D01*
X355746Y371889D01*
X355769Y371905D01*
X355795Y371929D01*
X355828Y371948D01*
X355861Y371971D01*
X355900Y371991D01*
X355943Y372014D01*
X355989Y372030D01*
X356038Y372050D01*
X356087Y372063D01*
X356143Y372076D01*
X356202Y372083D01*
X356225Y371758D01*
D02*
G37*
G36*
X385984Y387605D02*
Y387602D01*
Y387589D01*
Y387569D01*
Y387543D01*
X385981Y387510D01*
Y387474D01*
X385978Y387432D01*
X385975Y387389D01*
X385961Y387290D01*
X385948Y387189D01*
X385925Y387090D01*
X385912Y387044D01*
X385896Y387002D01*
Y386999D01*
X385893Y386992D01*
X385886Y386979D01*
X385879Y386966D01*
X385870Y386946D01*
X385856Y386923D01*
X385824Y386874D01*
X385781Y386815D01*
X385729Y386756D01*
X385663Y386694D01*
X385624Y386664D01*
X385584Y386638D01*
X385581D01*
X385574Y386631D01*
X385561Y386625D01*
X385545Y386615D01*
X385522Y386605D01*
X385496Y386595D01*
X385463Y386582D01*
X385427Y386569D01*
X385387Y386556D01*
X385342Y386543D01*
X385296Y386533D01*
X385243Y386523D01*
X385187Y386513D01*
X385128Y386507D01*
X385063Y386503D01*
X384997Y386500D01*
X384964D01*
X384938Y386503D01*
X384909D01*
X384872Y386507D01*
X384833Y386510D01*
X384790Y386516D01*
X384699Y386529D01*
X384604Y386552D01*
X384505Y386582D01*
X384417Y386621D01*
X384413D01*
X384407Y386628D01*
X384394Y386634D01*
X384380Y386644D01*
X384341Y386670D01*
X384292Y386710D01*
X384239Y386759D01*
X384187Y386821D01*
X384138Y386890D01*
X384095Y386972D01*
Y386976D01*
X384092Y386982D01*
X384085Y386995D01*
X384082Y387015D01*
X384072Y387038D01*
X384066Y387067D01*
X384056Y387100D01*
X384049Y387140D01*
X384039Y387182D01*
X384030Y387228D01*
X384023Y387281D01*
X384016Y387336D01*
X384010Y387399D01*
X384003Y387464D01*
X384000Y387533D01*
Y387605D01*
Y389065D01*
X384334D01*
Y387609D01*
Y387605D01*
Y387596D01*
Y387576D01*
Y387556D01*
X384338Y387527D01*
Y387497D01*
X384341Y387461D01*
Y387425D01*
X384348Y387346D01*
X384361Y387264D01*
X384374Y387189D01*
X384384Y387156D01*
X384394Y387123D01*
Y387120D01*
X384397Y387117D01*
X384407Y387097D01*
X384420Y387071D01*
X384443Y387035D01*
X384472Y386999D01*
X384508Y386956D01*
X384551Y386920D01*
X384604Y386884D01*
X384607D01*
X384610Y386880D01*
X384630Y386871D01*
X384663Y386858D01*
X384705Y386844D01*
X384758Y386828D01*
X384820Y386815D01*
X384889Y386805D01*
X384967Y386802D01*
X385004D01*
X385027Y386805D01*
X385056Y386808D01*
X385092Y386811D01*
X385132Y386815D01*
X385171Y386821D01*
X385256Y386841D01*
X385345Y386871D01*
X385384Y386890D01*
X385423Y386913D01*
X385459Y386936D01*
X385492Y386966D01*
X385496Y386969D01*
X385499Y386976D01*
X385506Y386985D01*
X385519Y386999D01*
X385528Y387018D01*
X385542Y387044D01*
X385558Y387074D01*
X385571Y387110D01*
X385588Y387149D01*
X385601Y387195D01*
X385614Y387248D01*
X385627Y387307D01*
X385637Y387372D01*
X385643Y387445D01*
X385647Y387523D01*
X385650Y387609D01*
Y389065D01*
X385984D01*
Y387605D01*
D02*
G37*
G36*
X387306Y389071D02*
X387339Y389068D01*
X387375Y389065D01*
X387414Y389058D01*
X387457Y389049D01*
X387549Y389026D01*
X387595Y389009D01*
X387644Y388989D01*
X387693Y388966D01*
X387739Y388937D01*
X387782Y388908D01*
X387824Y388871D01*
X387828Y388868D01*
X387834Y388861D01*
X387844Y388852D01*
X387857Y388835D01*
X387874Y388816D01*
X387893Y388793D01*
X387910Y388766D01*
X387933Y388734D01*
X387952Y388701D01*
X387969Y388662D01*
X388005Y388576D01*
X388018Y388530D01*
X388028Y388481D01*
X388034Y388429D01*
X388038Y388373D01*
Y388366D01*
Y388347D01*
X388034Y388317D01*
X388031Y388278D01*
X388021Y388235D01*
X388011Y388183D01*
X387995Y388130D01*
X387975Y388074D01*
X387972Y388068D01*
X387962Y388048D01*
X387949Y388019D01*
X387926Y387983D01*
X387897Y387937D01*
X387860Y387884D01*
X387818Y387825D01*
X387769Y387766D01*
Y387763D01*
X387762Y387759D01*
X387752Y387750D01*
X387742Y387737D01*
X387726Y387720D01*
X387706Y387700D01*
X387683Y387678D01*
X387654Y387651D01*
X387624Y387622D01*
X387588Y387589D01*
X387549Y387549D01*
X387506Y387510D01*
X387457Y387468D01*
X387408Y387425D01*
X387349Y387376D01*
X387290Y387323D01*
X387286Y387320D01*
X387277Y387313D01*
X387263Y387300D01*
X387244Y387287D01*
X387224Y387267D01*
X387198Y387245D01*
X387142Y387195D01*
X387080Y387143D01*
X387021Y387090D01*
X386995Y387067D01*
X386972Y387044D01*
X386949Y387021D01*
X386932Y387005D01*
X386929Y387002D01*
X386919Y386992D01*
X386906Y386976D01*
X386886Y386953D01*
X386867Y386930D01*
X386844Y386900D01*
X386801Y386841D01*
X388041D01*
Y386543D01*
X386371D01*
Y386549D01*
Y386562D01*
Y386582D01*
X386375Y386612D01*
X386378Y386644D01*
X386385Y386680D01*
X386394Y386716D01*
X386407Y386756D01*
Y386759D01*
X386411Y386762D01*
X386414Y386772D01*
X386421Y386785D01*
X386434Y386818D01*
X386457Y386861D01*
X386486Y386913D01*
X386519Y386969D01*
X386562Y387028D01*
X386611Y387090D01*
X386614Y387094D01*
X386617Y387097D01*
X386627Y387107D01*
X386637Y387120D01*
X386670Y387156D01*
X386716Y387202D01*
X386771Y387258D01*
X386840Y387323D01*
X386922Y387395D01*
X387017Y387474D01*
X387021Y387477D01*
X387034Y387491D01*
X387057Y387507D01*
X387083Y387530D01*
X387116Y387559D01*
X387155Y387592D01*
X387198Y387628D01*
X387241Y387668D01*
X387332Y387753D01*
X387424Y387842D01*
X387467Y387887D01*
X387506Y387930D01*
X387542Y387969D01*
X387572Y388009D01*
X387575Y388012D01*
X387578Y388019D01*
X387585Y388028D01*
X387595Y388042D01*
X387605Y388061D01*
X387618Y388081D01*
X387647Y388130D01*
X387673Y388186D01*
X387697Y388248D01*
X387713Y388317D01*
X387719Y388350D01*
Y388383D01*
Y388386D01*
Y388392D01*
Y388399D01*
X387716Y388412D01*
X387713Y388448D01*
X387703Y388491D01*
X387687Y388540D01*
X387664Y388589D01*
X387631Y388642D01*
X387585Y388691D01*
X387578Y388698D01*
X387562Y388711D01*
X387532Y388730D01*
X387493Y388757D01*
X387444Y388780D01*
X387385Y388799D01*
X387316Y388812D01*
X387241Y388819D01*
X387218D01*
X387205Y388816D01*
X387185D01*
X387162Y388812D01*
X387113Y388803D01*
X387057Y388786D01*
X386995Y388763D01*
X386936Y388730D01*
X386883Y388684D01*
X386877Y388678D01*
X386863Y388662D01*
X386840Y388629D01*
X386818Y388589D01*
X386791Y388534D01*
X386768Y388471D01*
X386755Y388399D01*
X386749Y388314D01*
X386430Y388347D01*
Y388350D01*
X386434Y388363D01*
Y388379D01*
X386437Y388406D01*
X386444Y388435D01*
X386450Y388468D01*
X386460Y388507D01*
X386473Y388547D01*
X386503Y388635D01*
X386522Y388681D01*
X386545Y388724D01*
X386572Y388770D01*
X386601Y388812D01*
X386634Y388852D01*
X386673Y388888D01*
X386676Y388891D01*
X386683Y388894D01*
X386696Y388904D01*
X386713Y388917D01*
X386736Y388930D01*
X386762Y388947D01*
X386791Y388963D01*
X386827Y388983D01*
X386867Y388999D01*
X386909Y389016D01*
X386955Y389032D01*
X387008Y389045D01*
X387060Y389058D01*
X387119Y389068D01*
X387182Y389071D01*
X387247Y389075D01*
X387283D01*
X387306Y389071D01*
D02*
G37*
G36*
X303522Y351326D02*
X303519Y351296D01*
Y351267D01*
X303516Y351231D01*
X303512Y351191D01*
X303506Y351109D01*
X303493Y351024D01*
X303476Y350942D01*
X303467Y350903D01*
X303453Y350870D01*
Y350867D01*
X303450Y350863D01*
X303447Y350853D01*
X303440Y350840D01*
X303424Y350807D01*
X303398Y350768D01*
X303365Y350722D01*
X303322Y350676D01*
X303270Y350630D01*
X303211Y350588D01*
X303207D01*
X303204Y350585D01*
X303194Y350578D01*
X303181Y350571D01*
X303145Y350555D01*
X303099Y350535D01*
X303043Y350516D01*
X302978Y350499D01*
X302906Y350486D01*
X302830Y350483D01*
X302827D01*
X302817D01*
X302804D01*
X302784Y350486D01*
X302761Y350489D01*
X302735Y350493D01*
X302673Y350506D01*
X302601Y350525D01*
X302525Y350555D01*
X302489Y350575D01*
X302450Y350598D01*
X302414Y350627D01*
X302378Y350657D01*
X302374Y350660D01*
X302371Y350663D01*
X302361Y350676D01*
X302348Y350690D01*
X302335Y350709D01*
X302319Y350732D01*
X302299Y350758D01*
X302279Y350788D01*
X302259Y350824D01*
X302240Y350863D01*
X302220Y350909D01*
X302200Y350958D01*
X302184Y351011D01*
X302168Y351067D01*
X302154Y351129D01*
X302145Y351195D01*
X302141Y351188D01*
X302135Y351172D01*
X302122Y351149D01*
X302105Y351119D01*
X302063Y351054D01*
X302040Y351024D01*
X302017Y350994D01*
Y350991D01*
X302010Y350988D01*
X301994Y350968D01*
X301964Y350942D01*
X301925Y350903D01*
X301879Y350860D01*
X301820Y350814D01*
X301754Y350765D01*
X301682Y350716D01*
X301000Y350279D01*
Y350699D01*
X301521Y351031D01*
X301525D01*
X301531Y351037D01*
X301544Y351044D01*
X301557Y351054D01*
X301577Y351067D01*
X301600Y351083D01*
X301649Y351116D01*
X301705Y351155D01*
X301761Y351195D01*
X301817Y351234D01*
X301866Y351273D01*
X301872Y351277D01*
X301886Y351290D01*
X301908Y351306D01*
X301932Y351329D01*
X301961Y351355D01*
X301991Y351385D01*
X302013Y351414D01*
X302036Y351444D01*
X302040Y351447D01*
X302043Y351457D01*
X302053Y351470D01*
X302063Y351490D01*
X302076Y351513D01*
X302086Y351539D01*
X302105Y351595D01*
Y351598D01*
X302109Y351605D01*
Y351618D01*
X302112Y351637D01*
X302115Y351664D01*
Y351696D01*
X302118Y351732D01*
Y352166D01*
X301000D01*
Y352500D01*
X303522D01*
Y351326D01*
D02*
G37*
G36*
X301069Y350125D02*
X301102Y350122D01*
X301138Y350115D01*
X301174Y350106D01*
X301213Y350093D01*
X301216D01*
X301220Y350089D01*
X301230Y350086D01*
X301243Y350079D01*
X301275Y350066D01*
X301318Y350043D01*
X301371Y350014D01*
X301426Y349981D01*
X301485Y349938D01*
X301548Y349889D01*
X301551Y349886D01*
X301554Y349883D01*
X301564Y349873D01*
X301577Y349863D01*
X301613Y349830D01*
X301659Y349784D01*
X301715Y349728D01*
X301781Y349659D01*
X301853Y349578D01*
X301932Y349482D01*
X301935Y349479D01*
X301948Y349466D01*
X301964Y349443D01*
X301987Y349417D01*
X302017Y349384D01*
X302049Y349345D01*
X302086Y349302D01*
X302125Y349259D01*
X302210Y349167D01*
X302299Y349076D01*
X302345Y349033D01*
X302387Y348994D01*
X302427Y348958D01*
X302466Y348928D01*
X302469Y348925D01*
X302476Y348921D01*
X302486Y348915D01*
X302499Y348905D01*
X302519Y348895D01*
X302538Y348882D01*
X302588Y348853D01*
X302643Y348826D01*
X302706Y348803D01*
X302774Y348787D01*
X302807Y348780D01*
X302840D01*
X302843D01*
X302850D01*
X302856D01*
X302870Y348784D01*
X302906Y348787D01*
X302948Y348797D01*
X302997Y348813D01*
X303047Y348836D01*
X303099Y348869D01*
X303148Y348915D01*
X303155Y348921D01*
X303168Y348938D01*
X303188Y348968D01*
X303214Y349007D01*
X303237Y349056D01*
X303257Y349115D01*
X303270Y349184D01*
X303276Y349259D01*
Y349282D01*
X303273Y349295D01*
Y349315D01*
X303270Y349338D01*
X303260Y349387D01*
X303243Y349443D01*
X303221Y349505D01*
X303188Y349564D01*
X303142Y349617D01*
X303135Y349623D01*
X303119Y349637D01*
X303086Y349659D01*
X303047Y349682D01*
X302991Y349709D01*
X302929Y349732D01*
X302856Y349745D01*
X302771Y349751D01*
X302804Y350069D01*
X302807D01*
X302820Y350066D01*
X302837D01*
X302863Y350063D01*
X302892Y350056D01*
X302925Y350050D01*
X302965Y350040D01*
X303004Y350027D01*
X303093Y349997D01*
X303138Y349978D01*
X303181Y349955D01*
X303227Y349928D01*
X303270Y349899D01*
X303309Y349866D01*
X303345Y349827D01*
X303348Y349823D01*
X303352Y349817D01*
X303362Y349804D01*
X303375Y349787D01*
X303388Y349764D01*
X303404Y349738D01*
X303421Y349709D01*
X303440Y349673D01*
X303457Y349633D01*
X303473Y349591D01*
X303489Y349545D01*
X303503Y349492D01*
X303516Y349440D01*
X303526Y349381D01*
X303529Y349318D01*
X303532Y349253D01*
Y349217D01*
X303529Y349194D01*
X303526Y349161D01*
X303522Y349125D01*
X303516Y349086D01*
X303506Y349043D01*
X303483Y348951D01*
X303467Y348905D01*
X303447Y348856D01*
X303424Y348807D01*
X303394Y348761D01*
X303365Y348718D01*
X303329Y348676D01*
X303326Y348672D01*
X303319Y348666D01*
X303309Y348656D01*
X303293Y348643D01*
X303273Y348626D01*
X303250Y348607D01*
X303224Y348590D01*
X303191Y348567D01*
X303158Y348548D01*
X303119Y348531D01*
X303034Y348495D01*
X302988Y348482D01*
X302938Y348472D01*
X302886Y348466D01*
X302830Y348462D01*
X302824D01*
X302804D01*
X302774Y348466D01*
X302735Y348469D01*
X302692Y348479D01*
X302640Y348489D01*
X302588Y348505D01*
X302532Y348525D01*
X302525Y348528D01*
X302505Y348538D01*
X302476Y348551D01*
X302440Y348574D01*
X302394Y348603D01*
X302342Y348639D01*
X302282Y348682D01*
X302223Y348731D01*
X302220D01*
X302217Y348738D01*
X302207Y348748D01*
X302194Y348758D01*
X302178Y348774D01*
X302158Y348794D01*
X302135Y348817D01*
X302109Y348846D01*
X302079Y348876D01*
X302046Y348912D01*
X302007Y348951D01*
X301968Y348994D01*
X301925Y349043D01*
X301882Y349092D01*
X301833Y349151D01*
X301781Y349210D01*
X301777Y349214D01*
X301771Y349223D01*
X301758Y349236D01*
X301745Y349256D01*
X301725Y349276D01*
X301702Y349302D01*
X301653Y349358D01*
X301600Y349420D01*
X301548Y349479D01*
X301525Y349505D01*
X301502Y349528D01*
X301479Y349551D01*
X301462Y349568D01*
X301459Y349571D01*
X301449Y349581D01*
X301433Y349594D01*
X301410Y349614D01*
X301387Y349633D01*
X301358Y349656D01*
X301298Y349699D01*
Y348459D01*
X301000D01*
Y350129D01*
X301007D01*
X301020D01*
X301039D01*
X301069Y350125D01*
D02*
G37*
%LPC*%
G36*
X385181Y360743D02*
X384334D01*
Y359907D01*
X385105D01*
X385128Y359910D01*
X385181Y359914D01*
X385237Y359917D01*
X385299Y359927D01*
X385355Y359937D01*
X385407Y359953D01*
X385414Y359956D01*
X385430Y359963D01*
X385453Y359973D01*
X385483Y359989D01*
X385512Y360009D01*
X385545Y360035D01*
X385578Y360068D01*
X385604Y360104D01*
X385607Y360107D01*
X385614Y360123D01*
X385627Y360143D01*
X385640Y360173D01*
X385650Y360206D01*
X385663Y360245D01*
X385669Y360284D01*
X385673Y360330D01*
Y360333D01*
Y360337D01*
Y360347D01*
X385669Y360360D01*
X385666Y360392D01*
X385656Y360435D01*
X385640Y360481D01*
X385617Y360530D01*
X385584Y360579D01*
X385542Y360625D01*
X385535Y360632D01*
X385515Y360645D01*
X385486Y360662D01*
X385440Y360684D01*
X385414Y360694D01*
X385384Y360707D01*
X385351Y360717D01*
X385312Y360724D01*
X385273Y360734D01*
X385230Y360737D01*
X385181Y360743D01*
D02*
G37*
G36*
X357786Y374166D02*
X356950D01*
Y373395D01*
X356953Y373372D01*
X356956Y373319D01*
X356960Y373264D01*
X356969Y373201D01*
X356979Y373145D01*
X356996Y373093D01*
X356999Y373086D01*
X357006Y373070D01*
X357015Y373047D01*
X357032Y373018D01*
X357051Y372988D01*
X357078Y372955D01*
X357110Y372922D01*
X357147Y372896D01*
X357150Y372893D01*
X357166Y372886D01*
X357186Y372873D01*
X357215Y372860D01*
X357248Y372850D01*
X357288Y372837D01*
X357327Y372831D01*
X357373Y372827D01*
X357376D01*
X357379D01*
X357389D01*
X357402Y372831D01*
X357435Y372834D01*
X357478Y372844D01*
X357524Y372860D01*
X357573Y372883D01*
X357622Y372916D01*
X357668Y372958D01*
X357675Y372965D01*
X357688Y372985D01*
X357704Y373014D01*
X357727Y373060D01*
X357737Y373086D01*
X357750Y373116D01*
X357760Y373149D01*
X357766Y373188D01*
X357776Y373227D01*
X357780Y373270D01*
X357786Y373319D01*
Y374166D01*
D02*
G37*
G36*
X303243Y352166D02*
X302407D01*
Y351395D01*
X302410Y351372D01*
X302414Y351319D01*
X302417Y351263D01*
X302427Y351201D01*
X302437Y351145D01*
X302453Y351093D01*
X302456Y351086D01*
X302463Y351070D01*
X302473Y351047D01*
X302489Y351017D01*
X302509Y350988D01*
X302535Y350955D01*
X302568Y350922D01*
X302604Y350896D01*
X302607Y350893D01*
X302624Y350886D01*
X302643Y350873D01*
X302673Y350860D01*
X302706Y350850D01*
X302745Y350837D01*
X302784Y350831D01*
X302830Y350827D01*
X302834D01*
X302837D01*
X302847D01*
X302860Y350831D01*
X302892Y350834D01*
X302935Y350844D01*
X302981Y350860D01*
X303030Y350883D01*
X303080Y350916D01*
X303125Y350958D01*
X303132Y350965D01*
X303145Y350985D01*
X303162Y351014D01*
X303184Y351060D01*
X303194Y351086D01*
X303207Y351116D01*
X303217Y351149D01*
X303224Y351188D01*
X303234Y351227D01*
X303237Y351270D01*
X303243Y351319D01*
Y352166D01*
D02*
G37*
%LPD*%
D11*
X373354Y352874D02*
Y364126D01*
Y352874D02*
X394646D01*
Y364126D01*
X373354D02*
X394646D01*
X351448Y382095D02*
X359552D01*
X351448Y366905D02*
Y382095D01*
Y366905D02*
X359552D01*
Y382095D01*
X365516Y366106D02*
Y406894D01*
Y366106D02*
X402484D01*
Y406894D01*
X365516D02*
X402484D01*
X295374Y363146D02*
X306626D01*
X295374Y341854D02*
Y363146D01*
Y341854D02*
X306626D01*
Y363146D01*
M02*
