G04*
G04 #@! TF.GenerationSoftware,Altium Limited,Altium Designer,24.8.2 (39)*
G04*
G04 Layer_Physical_Order=1*
G04 Layer_Color=255*
%FSLAX25Y25*%
%MOIN*%
G70*
G04*
G04 #@! TF.SameCoordinates,7DA90572-2472-42F9-BF80-4CDDFEAFDCCF*
G04*
G04*
G04 #@! TF.FilePolarity,Positive*
G04*
G01*
G75*
%ADD18R,0.05339X0.07316*%
%ADD19R,0.05512X0.06299*%
%ADD20R,0.07087X0.04921*%
%ADD21R,0.04166X0.05142*%
%ADD22R,0.07316X0.05339*%
%ADD23R,0.06299X0.05512*%
%ADD24R,0.03543X0.08268*%
%ADD25R,0.12598X0.08268*%
%ADD31C,0.04921*%
%ADD32R,0.04921X0.04921*%
%ADD37C,0.02500*%
%ADD38R,0.13780X0.05906*%
%ADD39R,0.05906X0.13780*%
%ADD40R,0.05906X0.15748*%
%ADD41C,0.15000*%
D18*
X390008Y358500D02*
D03*
X377992D02*
D03*
D19*
X389906Y344000D02*
D03*
X378095D02*
D03*
D20*
X410500Y401504D02*
D03*
Y389496D02*
D03*
X422000Y389496D02*
D03*
Y401504D02*
D03*
X355500Y407504D02*
D03*
Y395496D02*
D03*
D21*
Y371445D02*
D03*
Y377555D02*
D03*
D22*
X301000Y346492D02*
D03*
Y358508D02*
D03*
D23*
X312000Y346595D02*
D03*
Y358405D02*
D03*
D24*
X322445Y334780D02*
D03*
X331500D02*
D03*
X340555D02*
D03*
D25*
X331500Y357221D02*
D03*
D31*
X399630Y401500D02*
D03*
Y391500D02*
D03*
Y381500D02*
D03*
Y371500D02*
D03*
X368370D02*
D03*
Y381500D02*
D03*
Y391500D02*
D03*
D32*
Y401500D02*
D03*
D37*
Y354630D02*
X373000Y350000D01*
X368370Y354630D02*
Y371500D01*
X318500Y389500D02*
X320203Y391203D01*
Y396203D01*
X376589Y342100D02*
X378095Y343606D01*
X376195Y342100D02*
X376589D01*
X361094Y327000D02*
X376195Y342100D01*
X378095Y343606D02*
Y344000D01*
X336500Y327000D02*
X361094D01*
X331500Y334780D02*
X332022Y334258D01*
Y331478D02*
Y334258D01*
Y331478D02*
X336500Y327000D01*
X332000Y322000D02*
X367000D01*
X322967Y331033D02*
X332000Y322000D01*
X367000D02*
X384000Y339000D01*
X373000Y350000D02*
X382000D01*
X384000Y339000D02*
Y348000D01*
X382000Y350000D02*
X384000Y348000D01*
X393000Y401500D02*
X399630D01*
X388000Y396500D02*
X393000Y401500D01*
X363965Y396500D02*
X388000D01*
X362500Y397965D02*
Y399000D01*
Y397965D02*
X363965Y396500D01*
X357793Y403707D02*
Y406293D01*
X355500Y407504D02*
X356583D01*
X357793Y406293D01*
Y403707D02*
X362500Y399000D01*
X368370Y401500D02*
X386000D01*
X401500Y417000D01*
X418500D01*
X422000Y413500D01*
Y401504D02*
Y413500D01*
X356583Y395496D02*
X357793Y394285D01*
Y393203D02*
Y394285D01*
Y393203D02*
X359496Y391500D01*
X368370D01*
X355500Y395496D02*
X356583D01*
X399634Y401504D02*
X410500D01*
X399630Y401500D02*
X399634Y401504D01*
X408207Y390707D02*
Y391789D01*
X394500Y396500D02*
X403496D01*
X409417Y389496D02*
X410500D01*
X408207Y390707D02*
X409417Y389496D01*
X403496Y396500D02*
X408207Y391789D01*
X379500Y381500D02*
X394500Y396500D01*
X368370Y381500D02*
X379500D01*
X410500Y389496D02*
X422000D01*
X422000Y389496D01*
X377992Y358500D02*
Y369862D01*
X399630Y391500D01*
X389906Y344000D02*
Y358397D01*
X390008Y358500D01*
X322967Y331033D02*
Y334258D01*
X322445Y334780D02*
X322967Y334258D01*
X368370Y401500D02*
Y417630D01*
X362500Y423500D02*
X368370Y417630D01*
X320203Y396203D02*
X347500Y423500D01*
X362500D01*
X368315Y371445D02*
X368370Y371500D01*
X355500Y371445D02*
X368315D01*
X355500Y377555D02*
Y395496D01*
X340504Y407504D02*
X355500D01*
X330000Y397000D02*
X340504Y407504D01*
X330000Y383000D02*
Y397000D01*
X326000Y379000D02*
X330000Y383000D01*
X322000Y379000D02*
X326000D01*
X312000Y369000D02*
X322000Y379000D01*
X312000Y358405D02*
Y369000D01*
X303408Y356100D02*
Y357089D01*
Y356100D02*
X307508Y352000D01*
X301000Y358508D02*
X301989D01*
X303408Y357089D01*
X307508Y352000D02*
X318500D01*
X322445Y348055D01*
Y334780D02*
Y348055D01*
X340555Y337142D02*
X342122Y338709D01*
Y389500D01*
X340555Y334780D02*
Y337142D01*
X331500Y334780D02*
Y357221D01*
X330315Y358405D02*
X331500Y357221D01*
X312000Y358405D02*
X330315D01*
X311897Y346492D02*
X312000Y346595D01*
X301000Y346492D02*
X311897D01*
X308500Y389500D02*
X318500D01*
X301000Y358508D02*
Y382000D01*
X308500Y389500D01*
D38*
X330311Y370996D02*
D03*
D39*
X318500Y389500D02*
D03*
D40*
X342122D02*
D03*
D41*
X357000Y344000D02*
D03*
X419000Y331500D02*
D03*
X457000Y433000D02*
D03*
M02*
