G04*
G04 #@! TF.GenerationSoftware,Altium Limited,Altium Designer,24.8.2 (39)*
G04*
G04 Layer_Color=65535*
%FSLAX25Y25*%
%MOIN*%
G70*
G04*
G04 #@! TF.SameCoordinates,7DA90572-2472-42F9-BF80-4CDDFEAFDCCF*
G04*
G04*
G04 #@! TF.FilePolarity,Positive*
G04*
G01*
G75*
%ADD10C,0.00984*%
%ADD11C,0.00787*%
%ADD12C,0.03000*%
%ADD13C,0.01500*%
%ADD14C,0.02000*%
%ADD15C,0.01000*%
%ADD16R,0.00787X0.05906*%
%ADD17R,0.05906X0.00787*%
G36*
X306342Y427600D02*
X305719D01*
X305833Y428166D01*
X305825Y428159D01*
X305804Y428138D01*
X305776Y428110D01*
X305733Y428067D01*
X305684Y428018D01*
X305620Y427961D01*
X305549Y427905D01*
X305471Y427841D01*
X305380Y427777D01*
X305287Y427720D01*
X305188Y427664D01*
X305089Y427614D01*
X304976Y427579D01*
X304870Y427543D01*
X304749Y427522D01*
X304636Y427515D01*
X304579D01*
X304544Y427522D01*
X304495Y427529D01*
X304438Y427536D01*
X304310Y427565D01*
X304162Y427614D01*
X304084Y427650D01*
X304006Y427692D01*
X303928Y427735D01*
X303850Y427791D01*
X303772Y427855D01*
X303701Y427926D01*
X303694Y427933D01*
X303687Y427947D01*
X303666Y427968D01*
X303645Y428004D01*
X303617Y428046D01*
X303588Y428096D01*
X303553Y428159D01*
X303517Y428230D01*
X303482Y428308D01*
X303447Y428400D01*
X303418Y428499D01*
X303390Y428605D01*
X303369Y428719D01*
X303347Y428846D01*
X303340Y428981D01*
X303333Y429122D01*
Y429129D01*
Y429158D01*
Y429193D01*
X303340Y429243D01*
Y429306D01*
X303347Y429384D01*
X303355Y429469D01*
X303369Y429561D01*
X303404Y429760D01*
X303454Y429986D01*
X303524Y430213D01*
X303624Y430439D01*
X303631Y430446D01*
X303638Y430468D01*
X303652Y430496D01*
X303680Y430538D01*
X303709Y430588D01*
X303744Y430645D01*
X303829Y430772D01*
X303935Y430921D01*
X304063Y431069D01*
X304204Y431211D01*
X304360Y431331D01*
X304367Y431338D01*
X304381Y431345D01*
X304402Y431360D01*
X304438Y431381D01*
X304480Y431402D01*
X304523Y431423D01*
X304636Y431480D01*
X304771Y431537D01*
X304926Y431579D01*
X305089Y431614D01*
X305252Y431629D01*
X305287D01*
X305323Y431622D01*
X305372Y431614D01*
X305436Y431607D01*
X305507Y431593D01*
X305585Y431572D01*
X305670Y431544D01*
X305755Y431501D01*
X305847Y431459D01*
X305939Y431402D01*
X306031Y431331D01*
X306123Y431246D01*
X306208Y431154D01*
X306293Y431048D01*
X306364Y430921D01*
X306810Y433045D01*
X307475D01*
X306342Y427600D01*
D02*
G37*
G36*
X335172Y431622D02*
X335215D01*
X335264Y431614D01*
X335370Y431593D01*
X335491Y431565D01*
X335618Y431515D01*
X335738Y431452D01*
X335852Y431367D01*
X335866Y431353D01*
X335894Y431317D01*
X335937Y431260D01*
X335993Y431183D01*
X336043Y431083D01*
X336085Y430963D01*
X336114Y430822D01*
X336128Y430666D01*
Y430659D01*
Y430623D01*
X336121Y430574D01*
X336114Y430496D01*
X336107Y430404D01*
X336085Y430283D01*
X336064Y430142D01*
X336029Y429979D01*
X335491Y427600D01*
X334825D01*
X335377Y430092D01*
Y430099D01*
X335384Y430106D01*
X335392Y430156D01*
X335406Y430220D01*
X335420Y430298D01*
X335434Y430382D01*
X335441Y430475D01*
X335455Y430559D01*
Y430630D01*
Y430637D01*
Y430666D01*
X335448Y430701D01*
X335441Y430744D01*
X335420Y430793D01*
X335399Y430850D01*
X335363Y430899D01*
X335314Y430949D01*
X335307Y430956D01*
X335293Y430970D01*
X335257Y430991D01*
X335215Y431013D01*
X335158Y431034D01*
X335094Y431055D01*
X335016Y431069D01*
X334924Y431076D01*
X334875D01*
X334839Y431069D01*
X334790Y431062D01*
X334740Y431055D01*
X334613Y431027D01*
X334464Y430984D01*
X334308Y430921D01*
X334230Y430878D01*
X334145Y430829D01*
X334068Y430765D01*
X333990Y430701D01*
X333983Y430694D01*
X333968Y430687D01*
X333954Y430659D01*
X333926Y430630D01*
X333891Y430588D01*
X333848Y430538D01*
X333806Y430475D01*
X333763Y430404D01*
X333714Y430326D01*
X333664Y430227D01*
X333614Y430128D01*
X333565Y430014D01*
X333515Y429887D01*
X333466Y429745D01*
X333423Y429597D01*
X333388Y429434D01*
X333006Y427600D01*
X332340D01*
X333161Y431544D01*
X333777D01*
X333636Y430850D01*
X333643Y430857D01*
X333657Y430871D01*
X333678Y430885D01*
X333707Y430913D01*
X333777Y430984D01*
X333876Y431076D01*
X333990Y431168D01*
X334117Y431267D01*
X334245Y431360D01*
X334379Y431437D01*
X334386D01*
X334393Y431445D01*
X334415Y431459D01*
X334443Y431466D01*
X334514Y431501D01*
X334599Y431537D01*
X334712Y431565D01*
X334832Y431600D01*
X334960Y431622D01*
X335094Y431629D01*
X335144D01*
X335172Y431622D01*
D02*
G37*
G36*
X295290Y427600D02*
X294568D01*
X295099Y430163D01*
X292253D01*
X291722Y427600D01*
X291000D01*
X292140Y433045D01*
X292862D01*
X292388Y430779D01*
X295234D01*
X295708Y433045D01*
X296430D01*
X295290Y427600D01*
D02*
G37*
G36*
X319653Y431622D02*
X319717Y431614D01*
X319787Y431593D01*
X319872Y431572D01*
X319964Y431537D01*
X320071Y431487D01*
X319794Y430864D01*
X319787Y430871D01*
X319766Y430885D01*
X319731Y430899D01*
X319681Y430928D01*
X319624Y430949D01*
X319561Y430963D01*
X319490Y430977D01*
X319412Y430984D01*
X319377D01*
X319348Y430977D01*
X319278Y430963D01*
X319185Y430935D01*
X319079Y430885D01*
X318952Y430814D01*
X318888Y430772D01*
X318824Y430722D01*
X318754Y430659D01*
X318683Y430588D01*
X318676Y430581D01*
X318669Y430567D01*
X318647Y430545D01*
X318619Y430510D01*
X318591Y430468D01*
X318555Y430411D01*
X318513Y430347D01*
X318470Y430269D01*
X318428Y430177D01*
X318378Y430071D01*
X318329Y429958D01*
X318279Y429830D01*
X318230Y429689D01*
X318180Y429533D01*
X318138Y429363D01*
X318095Y429179D01*
X317770Y427600D01*
X317132D01*
X317954Y431544D01*
X318555D01*
X318378Y430729D01*
X318385Y430736D01*
X318392Y430751D01*
X318407Y430772D01*
X318435Y430807D01*
X318492Y430885D01*
X318569Y430984D01*
X318662Y431098D01*
X318761Y431211D01*
X318874Y431317D01*
X318980Y431409D01*
X318994Y431416D01*
X319030Y431445D01*
X319086Y431480D01*
X319164Y431522D01*
X319256Y431558D01*
X319355Y431593D01*
X319462Y431622D01*
X319575Y431629D01*
X319610D01*
X319653Y431622D01*
D02*
G37*
G36*
X303170D02*
X303234Y431614D01*
X303305Y431593D01*
X303390Y431572D01*
X303482Y431537D01*
X303588Y431487D01*
X303312Y430864D01*
X303305Y430871D01*
X303284Y430885D01*
X303248Y430899D01*
X303199Y430928D01*
X303142Y430949D01*
X303079Y430963D01*
X303008Y430977D01*
X302930Y430984D01*
X302894D01*
X302866Y430977D01*
X302795Y430963D01*
X302703Y430935D01*
X302597Y430885D01*
X302470Y430814D01*
X302406Y430772D01*
X302342Y430722D01*
X302271Y430659D01*
X302201Y430588D01*
X302193Y430581D01*
X302186Y430567D01*
X302165Y430545D01*
X302137Y430510D01*
X302109Y430468D01*
X302073Y430411D01*
X302031Y430347D01*
X301988Y430269D01*
X301946Y430177D01*
X301896Y430071D01*
X301847Y429958D01*
X301797Y429830D01*
X301747Y429689D01*
X301698Y429533D01*
X301655Y429363D01*
X301613Y429179D01*
X301287Y427600D01*
X300650D01*
X301471Y431544D01*
X302073D01*
X301896Y430729D01*
X301903Y430736D01*
X301910Y430751D01*
X301924Y430772D01*
X301953Y430807D01*
X302009Y430885D01*
X302087Y430984D01*
X302179Y431098D01*
X302278Y431211D01*
X302392Y431317D01*
X302498Y431409D01*
X302512Y431416D01*
X302548Y431445D01*
X302604Y431480D01*
X302682Y431522D01*
X302774Y431558D01*
X302873Y431593D01*
X302979Y431622D01*
X303093Y431629D01*
X303128D01*
X303170Y431622D01*
D02*
G37*
G36*
X326046Y429236D02*
X323993D01*
X324134Y429908D01*
X326181D01*
X326046Y429236D01*
D02*
G37*
G36*
X311150Y427600D02*
X310442D01*
X310293Y429908D01*
Y429922D01*
Y429951D01*
X310286Y430007D01*
Y430050D01*
Y430099D01*
X310279Y430149D01*
Y430213D01*
Y430276D01*
Y430354D01*
X310272Y430439D01*
Y430538D01*
X310265Y430637D01*
Y430744D01*
X310258Y430729D01*
X310250Y430708D01*
X310236Y430680D01*
X310222Y430645D01*
X310208Y430602D01*
X310166Y430489D01*
X310116Y430361D01*
X310052Y430220D01*
X309989Y430057D01*
X309911Y429887D01*
X308870Y427600D01*
X308162D01*
X307744Y431544D01*
X308388D01*
X308565Y429767D01*
X308643Y428775D01*
Y428768D01*
Y428754D01*
Y428719D01*
X308650Y428676D01*
Y428620D01*
X308658Y428542D01*
Y428443D01*
X308665Y428329D01*
Y428336D01*
X308672Y428343D01*
X308686Y428393D01*
X308707Y428457D01*
X308728Y428542D01*
X308764Y428627D01*
X308792Y428726D01*
X308827Y428818D01*
X308856Y428896D01*
X308863Y428903D01*
X308870Y428931D01*
X308891Y428981D01*
X308920Y429044D01*
X308948Y429129D01*
X308990Y429228D01*
X309047Y429349D01*
X309104Y429483D01*
X310045Y431544D01*
X310774D01*
X310902Y429568D01*
Y429561D01*
Y429547D01*
Y429526D01*
X310909Y429490D01*
Y429441D01*
Y429391D01*
X310916Y429328D01*
Y429250D01*
X310923Y429172D01*
Y429080D01*
X310930Y428981D01*
Y428874D01*
X310937Y428761D01*
Y428641D01*
X310944Y428506D01*
Y428379D01*
X310951Y428393D01*
X310966Y428421D01*
X310980Y428464D01*
X311001Y428513D01*
X311029Y428570D01*
X311058Y428648D01*
X311093Y428726D01*
X311136Y428818D01*
X311178Y428924D01*
X311228Y429037D01*
X311284Y429158D01*
X311341Y429292D01*
X311405Y429434D01*
X311475Y429583D01*
X311553Y429745D01*
X312389Y431544D01*
X313061D01*
X311150Y427600D01*
D02*
G37*
G36*
X339753Y427083D02*
X339746Y427076D01*
X339739Y427055D01*
X339718Y427020D01*
X339689Y426977D01*
X339661Y426928D01*
X339618Y426864D01*
X339533Y426729D01*
X339434Y426581D01*
X339321Y426439D01*
X339264Y426375D01*
X339208Y426311D01*
X339158Y426255D01*
X339102Y426212D01*
X339087Y426205D01*
X339052Y426177D01*
X338995Y426149D01*
X338917Y426106D01*
X338825Y426071D01*
X338712Y426035D01*
X338592Y426007D01*
X338457Y426000D01*
X338415D01*
X338372Y426007D01*
X338316Y426014D01*
X338245Y426021D01*
X338167Y426035D01*
X338089Y426057D01*
X338004Y426085D01*
X338047Y426715D01*
X338054D01*
X338082Y426708D01*
X338124Y426694D01*
X338174Y426687D01*
X338238Y426673D01*
X338301Y426658D01*
X338450Y426651D01*
X338486D01*
X338521Y426658D01*
X338563Y426665D01*
X338670Y426694D01*
X338726Y426715D01*
X338776Y426751D01*
X338783Y426758D01*
X338804Y426772D01*
X338840Y426807D01*
X338882Y426850D01*
X338932Y426913D01*
X338995Y426991D01*
X339059Y427090D01*
X339130Y427204D01*
X339349Y427593D01*
X338698Y431544D01*
X339356D01*
X339647Y429547D01*
Y429540D01*
X339654Y429519D01*
Y429490D01*
X339661Y429448D01*
X339668Y429391D01*
X339682Y429328D01*
X339689Y429257D01*
X339703Y429179D01*
X339725Y428995D01*
X339753Y428797D01*
X339781Y428584D01*
X339802Y428365D01*
X341565Y431544D01*
X342259D01*
X339753Y427083D01*
D02*
G37*
G36*
X337190Y427600D02*
X336517D01*
X337657Y433045D01*
X338323D01*
X337190Y427600D01*
D02*
G37*
G36*
X315284Y431622D02*
X315348D01*
X315419Y431607D01*
X315497Y431600D01*
X315582Y431586D01*
X315766Y431544D01*
X315957Y431480D01*
X316056Y431437D01*
X316148Y431395D01*
X316233Y431338D01*
X316318Y431275D01*
X316325D01*
X316332Y431260D01*
X316368Y431225D01*
X316424Y431176D01*
X316488Y431098D01*
X316545Y430999D01*
X316601Y430885D01*
X316637Y430751D01*
X316651Y430680D01*
Y430602D01*
Y430588D01*
Y430545D01*
X316644Y430482D01*
X316637Y430390D01*
X316630Y430283D01*
X316608Y430163D01*
X316587Y430021D01*
X316552Y429873D01*
X316332Y428889D01*
Y428882D01*
X316325Y428867D01*
Y428846D01*
X316318Y428811D01*
X316311Y428768D01*
X316304Y428726D01*
X316283Y428620D01*
X316261Y428499D01*
X316247Y428372D01*
X316240Y428244D01*
X316233Y428131D01*
Y428124D01*
Y428096D01*
X316240Y428053D01*
Y427997D01*
X316254Y427919D01*
X316268Y427827D01*
X316283Y427720D01*
X316311Y427600D01*
X315631D01*
Y427607D01*
X315624Y427635D01*
X315617Y427678D01*
X315603Y427735D01*
X315596Y427805D01*
X315582Y427890D01*
X315568Y427982D01*
X315561Y428089D01*
X315553D01*
X315546Y428074D01*
X315525Y428060D01*
X315504Y428039D01*
X315433Y427982D01*
X315341Y427919D01*
X315242Y427848D01*
X315122Y427777D01*
X315001Y427706D01*
X314881Y427650D01*
X314867Y427643D01*
X314824Y427628D01*
X314760Y427607D01*
X314675Y427586D01*
X314576Y427558D01*
X314456Y427536D01*
X314329Y427522D01*
X314194Y427515D01*
X314144D01*
X314102Y427522D01*
X314060D01*
X314003Y427529D01*
X313883Y427558D01*
X313741Y427593D01*
X313592Y427650D01*
X313451Y427728D01*
X313380Y427777D01*
X313316Y427834D01*
Y427841D01*
X313302Y427848D01*
X313267Y427890D01*
X313210Y427961D01*
X313153Y428053D01*
X313090Y428174D01*
X313033Y428315D01*
X312998Y428478D01*
X312990Y428563D01*
X312983Y428655D01*
Y428662D01*
Y428669D01*
Y428712D01*
X312990Y428768D01*
X313005Y428853D01*
X313019Y428938D01*
X313047Y429037D01*
X313083Y429136D01*
X313132Y429236D01*
X313139Y429250D01*
X313160Y429278D01*
X313196Y429328D01*
X313238Y429384D01*
X313295Y429448D01*
X313366Y429512D01*
X313444Y429583D01*
X313529Y429639D01*
X313543Y429646D01*
X313571Y429667D01*
X313628Y429696D01*
X313699Y429724D01*
X313783Y429767D01*
X313890Y429802D01*
X314010Y429837D01*
X314137Y429866D01*
X314152D01*
X314180Y429873D01*
X314244Y429880D01*
X314279Y429887D01*
X314329D01*
X314385Y429894D01*
X314449Y429901D01*
X314520Y429908D01*
X314598D01*
X314683Y429915D01*
X314775Y429922D01*
X314881D01*
X314994Y429929D01*
X315022D01*
X315058Y429937D01*
X315150D01*
X315214Y429944D01*
X315348Y429958D01*
X315497Y429979D01*
X315646Y430000D01*
X315787Y430036D01*
X315851Y430050D01*
X315907Y430071D01*
X315915Y430085D01*
X315922Y430114D01*
X315936Y430163D01*
X315950Y430227D01*
X315964Y430298D01*
X315971Y430375D01*
X315985Y430453D01*
Y430524D01*
Y430531D01*
Y430559D01*
X315978Y430602D01*
X315964Y430659D01*
X315943Y430715D01*
X315907Y430772D01*
X315865Y430836D01*
X315808Y430885D01*
X315794Y430892D01*
X315766Y430913D01*
X315709Y430949D01*
X315638Y430984D01*
X315539Y431013D01*
X315426Y431048D01*
X315284Y431069D01*
X315129Y431076D01*
X315058D01*
X314980Y431069D01*
X314881Y431055D01*
X314775Y431027D01*
X314654Y430999D01*
X314541Y430949D01*
X314435Y430885D01*
X314421Y430878D01*
X314392Y430850D01*
X314343Y430807D01*
X314286Y430751D01*
X314222Y430680D01*
X314159Y430588D01*
X314095Y430482D01*
X314045Y430361D01*
X313373Y430418D01*
Y430425D01*
X313380Y430446D01*
X313394Y430475D01*
X313415Y430517D01*
X313437Y430559D01*
X313465Y430616D01*
X313529Y430751D01*
X313621Y430892D01*
X313734Y431041D01*
X313868Y431183D01*
X314024Y431310D01*
X314031Y431317D01*
X314045Y431324D01*
X314074Y431338D01*
X314109Y431360D01*
X314152Y431381D01*
X314201Y431409D01*
X314265Y431437D01*
X314336Y431473D01*
X314414Y431501D01*
X314498Y431530D01*
X314598Y431558D01*
X314697Y431579D01*
X314916Y431614D01*
X315037Y431629D01*
X315235D01*
X315284Y431622D01*
D02*
G37*
G36*
X298802D02*
X298866D01*
X298937Y431607D01*
X299015Y431600D01*
X299099Y431586D01*
X299284Y431544D01*
X299475Y431480D01*
X299574Y431437D01*
X299666Y431395D01*
X299751Y431338D01*
X299836Y431275D01*
X299843D01*
X299850Y431260D01*
X299885Y431225D01*
X299942Y431176D01*
X300006Y431098D01*
X300062Y430999D01*
X300119Y430885D01*
X300154Y430751D01*
X300169Y430680D01*
Y430602D01*
Y430588D01*
Y430545D01*
X300162Y430482D01*
X300154Y430390D01*
X300147Y430283D01*
X300126Y430163D01*
X300105Y430021D01*
X300069Y429873D01*
X299850Y428889D01*
Y428882D01*
X299843Y428867D01*
Y428846D01*
X299836Y428811D01*
X299829Y428768D01*
X299822Y428726D01*
X299800Y428620D01*
X299779Y428499D01*
X299765Y428372D01*
X299758Y428244D01*
X299751Y428131D01*
Y428124D01*
Y428096D01*
X299758Y428053D01*
Y427997D01*
X299772Y427919D01*
X299786Y427827D01*
X299800Y427720D01*
X299829Y427600D01*
X299149D01*
Y427607D01*
X299142Y427635D01*
X299135Y427678D01*
X299121Y427735D01*
X299114Y427805D01*
X299099Y427890D01*
X299085Y427982D01*
X299078Y428089D01*
X299071D01*
X299064Y428074D01*
X299043Y428060D01*
X299022Y428039D01*
X298951Y427982D01*
X298859Y427919D01*
X298760Y427848D01*
X298639Y427777D01*
X298519Y427706D01*
X298399Y427650D01*
X298384Y427643D01*
X298342Y427628D01*
X298278Y427607D01*
X298193Y427586D01*
X298094Y427558D01*
X297974Y427536D01*
X297846Y427522D01*
X297712Y427515D01*
X297662D01*
X297620Y427522D01*
X297577D01*
X297521Y427529D01*
X297400Y427558D01*
X297259Y427593D01*
X297110Y427650D01*
X296968Y427728D01*
X296898Y427777D01*
X296834Y427834D01*
Y427841D01*
X296820Y427848D01*
X296784Y427890D01*
X296728Y427961D01*
X296671Y428053D01*
X296607Y428174D01*
X296551Y428315D01*
X296515Y428478D01*
X296508Y428563D01*
X296501Y428655D01*
Y428662D01*
Y428669D01*
Y428712D01*
X296508Y428768D01*
X296522Y428853D01*
X296537Y428938D01*
X296565Y429037D01*
X296600Y429136D01*
X296650Y429236D01*
X296657Y429250D01*
X296678Y429278D01*
X296714Y429328D01*
X296756Y429384D01*
X296813Y429448D01*
X296884Y429512D01*
X296961Y429583D01*
X297046Y429639D01*
X297060Y429646D01*
X297089Y429667D01*
X297145Y429696D01*
X297216Y429724D01*
X297301Y429767D01*
X297407Y429802D01*
X297528Y429837D01*
X297655Y429866D01*
X297669D01*
X297698Y429873D01*
X297761Y429880D01*
X297797Y429887D01*
X297846D01*
X297903Y429894D01*
X297967Y429901D01*
X298038Y429908D01*
X298115D01*
X298200Y429915D01*
X298292Y429922D01*
X298399D01*
X298512Y429929D01*
X298540D01*
X298576Y429937D01*
X298668D01*
X298731Y429944D01*
X298866Y429958D01*
X299015Y429979D01*
X299163Y430000D01*
X299305Y430036D01*
X299369Y430050D01*
X299425Y430071D01*
X299432Y430085D01*
X299439Y430114D01*
X299453Y430163D01*
X299468Y430227D01*
X299482Y430298D01*
X299489Y430375D01*
X299503Y430453D01*
Y430524D01*
Y430531D01*
Y430559D01*
X299496Y430602D01*
X299482Y430659D01*
X299461Y430715D01*
X299425Y430772D01*
X299383Y430836D01*
X299326Y430885D01*
X299312Y430892D01*
X299284Y430913D01*
X299227Y430949D01*
X299156Y430984D01*
X299057Y431013D01*
X298944Y431048D01*
X298802Y431069D01*
X298646Y431076D01*
X298576D01*
X298498Y431069D01*
X298399Y431055D01*
X298292Y431027D01*
X298172Y430999D01*
X298059Y430949D01*
X297953Y430885D01*
X297938Y430878D01*
X297910Y430850D01*
X297861Y430807D01*
X297804Y430751D01*
X297740Y430680D01*
X297676Y430588D01*
X297613Y430482D01*
X297563Y430361D01*
X296891Y430418D01*
Y430425D01*
X296898Y430446D01*
X296912Y430475D01*
X296933Y430517D01*
X296954Y430559D01*
X296983Y430616D01*
X297046Y430751D01*
X297138Y430892D01*
X297252Y431041D01*
X297386Y431183D01*
X297542Y431310D01*
X297549Y431317D01*
X297563Y431324D01*
X297591Y431338D01*
X297627Y431360D01*
X297669Y431381D01*
X297719Y431409D01*
X297783Y431437D01*
X297853Y431473D01*
X297931Y431501D01*
X298016Y431530D01*
X298115Y431558D01*
X298215Y431579D01*
X298434Y431614D01*
X298554Y431629D01*
X298753D01*
X298802Y431622D01*
D02*
G37*
G36*
X322025D02*
X322088Y431614D01*
X322159Y431607D01*
X322230Y431593D01*
X322315Y431572D01*
X322492Y431522D01*
X322591Y431487D01*
X322683Y431445D01*
X322775Y431395D01*
X322867Y431331D01*
X322952Y431267D01*
X323037Y431190D01*
X323044Y431183D01*
X323058Y431168D01*
X323079Y431147D01*
X323101Y431112D01*
X323136Y431062D01*
X323171Y431013D01*
X323207Y430949D01*
X323249Y430878D01*
X323292Y430793D01*
X323327Y430708D01*
X323363Y430609D01*
X323398Y430503D01*
X323419Y430382D01*
X323441Y430262D01*
X323455Y430135D01*
X323462Y429993D01*
Y429979D01*
Y429944D01*
Y429887D01*
X323455Y429809D01*
X323448Y429724D01*
X323441Y429625D01*
X323426Y429519D01*
X323405Y429405D01*
X320502D01*
Y429398D01*
Y429384D01*
X320495Y429363D01*
Y429335D01*
X320488Y429264D01*
Y429193D01*
Y429186D01*
Y429172D01*
Y429143D01*
X320495Y429101D01*
Y429059D01*
X320502Y429002D01*
X320516Y428882D01*
X320552Y428747D01*
X320594Y428605D01*
X320651Y428471D01*
X320736Y428351D01*
X320750Y428336D01*
X320778Y428308D01*
X320835Y428259D01*
X320913Y428209D01*
X320998Y428159D01*
X321104Y428110D01*
X321224Y428082D01*
X321359Y428067D01*
X321373D01*
X321416Y428074D01*
X321486Y428082D01*
X321571Y428096D01*
X321678Y428124D01*
X321791Y428159D01*
X321911Y428216D01*
X322039Y428287D01*
X322046D01*
X322053Y428294D01*
X322095Y428329D01*
X322159Y428379D01*
X322230Y428450D01*
X322315Y428542D01*
X322407Y428655D01*
X322485Y428782D01*
X322563Y428931D01*
X323214Y428874D01*
Y428867D01*
X323207Y428853D01*
X323200Y428825D01*
X323186Y428790D01*
X323164Y428747D01*
X323143Y428697D01*
X323087Y428577D01*
X322994Y428436D01*
X322945Y428358D01*
X322888Y428280D01*
X322817Y428195D01*
X322747Y428110D01*
X322662Y428032D01*
X322570Y427947D01*
X322563Y427940D01*
X322549Y427926D01*
X322520Y427905D01*
X322478Y427883D01*
X322428Y427848D01*
X322372Y427812D01*
X322301Y427770D01*
X322230Y427735D01*
X322145Y427692D01*
X322053Y427650D01*
X321954Y427614D01*
X321848Y427586D01*
X321734Y427558D01*
X321614Y427536D01*
X321486Y427522D01*
X321359Y427515D01*
X321288D01*
X321246Y427522D01*
X321203Y427529D01*
X321097Y427543D01*
X320970Y427565D01*
X320835Y427600D01*
X320693Y427650D01*
X320552Y427713D01*
X320545D01*
X320538Y427720D01*
X320495Y427749D01*
X320425Y427798D01*
X320347Y427862D01*
X320262Y427947D01*
X320170Y428046D01*
X320078Y428166D01*
X320000Y428301D01*
Y428308D01*
X319993Y428315D01*
X319986Y428336D01*
X319971Y428372D01*
X319957Y428407D01*
X319936Y428450D01*
X319908Y428556D01*
X319872Y428683D01*
X319837Y428832D01*
X319816Y429002D01*
X319809Y429179D01*
Y429186D01*
Y429207D01*
Y429243D01*
X319816Y429292D01*
Y429349D01*
X319823Y429413D01*
X319837Y429490D01*
X319844Y429575D01*
X319879Y429767D01*
X319936Y429979D01*
X320007Y430198D01*
X320106Y430425D01*
X320113Y430432D01*
X320120Y430453D01*
X320134Y430482D01*
X320163Y430524D01*
X320191Y430574D01*
X320226Y430630D01*
X320311Y430765D01*
X320425Y430913D01*
X320559Y431062D01*
X320708Y431204D01*
X320793Y431275D01*
X320878Y431331D01*
X320885Y431338D01*
X320899Y431345D01*
X320927Y431360D01*
X320963Y431381D01*
X321005Y431402D01*
X321055Y431423D01*
X321118Y431452D01*
X321182Y431480D01*
X321338Y431537D01*
X321515Y431579D01*
X321706Y431614D01*
X321911Y431629D01*
X321982D01*
X322025Y431622D01*
D02*
G37*
G36*
X329841Y433130D02*
X329912D01*
X329997Y433115D01*
X330096Y433101D01*
X330209Y433080D01*
X330329Y433052D01*
X330457Y433016D01*
X330591Y432974D01*
X330733Y432917D01*
X330875Y432853D01*
X331009Y432783D01*
X331144Y432691D01*
X331278Y432591D01*
X331399Y432471D01*
X331406Y432464D01*
X331427Y432443D01*
X331455Y432400D01*
X331498Y432351D01*
X331547Y432280D01*
X331604Y432202D01*
X331660Y432110D01*
X331724Y431997D01*
X331781Y431876D01*
X331837Y431742D01*
X331894Y431600D01*
X331944Y431437D01*
X331986Y431267D01*
X332014Y431090D01*
X332036Y430899D01*
X332043Y430694D01*
Y430687D01*
Y430659D01*
Y430616D01*
X332036Y430559D01*
Y430489D01*
X332029Y430411D01*
X332014Y430312D01*
X332000Y430213D01*
X331986Y430106D01*
X331965Y429986D01*
X331908Y429738D01*
X331823Y429483D01*
X331774Y429349D01*
X331717Y429221D01*
Y429214D01*
X331703Y429200D01*
X331696Y429172D01*
X331675Y429136D01*
X331653Y429094D01*
X331625Y429044D01*
X331554Y428924D01*
X331462Y428782D01*
X331356Y428634D01*
X331243Y428485D01*
X331108Y428343D01*
X331101Y428336D01*
X331094Y428329D01*
X331073Y428308D01*
X331045Y428280D01*
X330967Y428216D01*
X330875Y428131D01*
X330754Y428039D01*
X330620Y427947D01*
X330478Y427855D01*
X330322Y427770D01*
X330315D01*
X330294Y427756D01*
X330266Y427749D01*
X330223Y427728D01*
X330174Y427706D01*
X330110Y427685D01*
X330046Y427664D01*
X329968Y427643D01*
X329883Y427614D01*
X329791Y427593D01*
X329586Y427551D01*
X329366Y427522D01*
X329140Y427508D01*
X329076D01*
X329027Y427515D01*
X328970D01*
X328906Y427522D01*
X328828Y427536D01*
X328751Y427551D01*
X328567Y427586D01*
X328361Y427643D01*
X328156Y427720D01*
X328050Y427763D01*
X327951Y427820D01*
X327943Y427827D01*
X327929Y427834D01*
X327901Y427855D01*
X327866Y427876D01*
X327816Y427912D01*
X327766Y427947D01*
X327653Y428046D01*
X327519Y428166D01*
X327384Y428315D01*
X327257Y428485D01*
X327143Y428683D01*
Y428690D01*
X327129Y428712D01*
X327115Y428740D01*
X327101Y428782D01*
X327080Y428832D01*
X327058Y428896D01*
X327030Y428967D01*
X327009Y429044D01*
X326981Y429129D01*
X326952Y429221D01*
X326910Y429427D01*
X326881Y429646D01*
X326867Y429880D01*
Y429887D01*
Y429894D01*
Y429915D01*
Y429944D01*
X326874Y430021D01*
X326881Y430121D01*
X326896Y430241D01*
X326910Y430390D01*
X326938Y430545D01*
X326974Y430715D01*
X327016Y430899D01*
X327073Y431090D01*
X327136Y431289D01*
X327221Y431487D01*
X327313Y431678D01*
X327427Y431869D01*
X327554Y432053D01*
X327703Y432230D01*
X327710Y432237D01*
X327738Y432273D01*
X327788Y432315D01*
X327851Y432372D01*
X327936Y432443D01*
X328035Y432521D01*
X328149Y432599D01*
X328276Y432684D01*
X328418Y432768D01*
X328574Y432853D01*
X328736Y432924D01*
X328921Y432995D01*
X329112Y433052D01*
X329310Y433101D01*
X329522Y433130D01*
X329742Y433137D01*
X329784D01*
X329841Y433130D01*
D02*
G37*
%LPC*%
G36*
X305294Y431076D02*
X305252D01*
X305210Y431069D01*
X305146Y431062D01*
X305082Y431048D01*
X305004Y431027D01*
X304926Y430999D01*
X304849Y430963D01*
X304841Y430956D01*
X304813Y430942D01*
X304778Y430913D01*
X304728Y430878D01*
X304664Y430829D01*
X304601Y430765D01*
X304523Y430687D01*
X304452Y430595D01*
X304445Y430581D01*
X304424Y430552D01*
X304381Y430496D01*
X304339Y430418D01*
X304289Y430326D01*
X304233Y430213D01*
X304176Y430085D01*
X304126Y429944D01*
Y429937D01*
X304119Y429929D01*
X304112Y429908D01*
X304105Y429880D01*
X304084Y429802D01*
X304063Y429710D01*
X304041Y429597D01*
X304020Y429483D01*
X304006Y429363D01*
X303999Y429250D01*
Y429243D01*
Y429228D01*
Y429207D01*
Y429179D01*
X304006Y429108D01*
Y429016D01*
X304020Y428910D01*
X304034Y428804D01*
X304048Y428697D01*
X304077Y428598D01*
X304084Y428591D01*
X304091Y428563D01*
X304112Y428513D01*
X304140Y428464D01*
X304183Y428400D01*
X304233Y428336D01*
X304289Y428273D01*
X304353Y428209D01*
X304360Y428202D01*
X304388Y428188D01*
X304431Y428159D01*
X304487Y428131D01*
X304558Y428103D01*
X304636Y428074D01*
X304728Y428060D01*
X304827Y428053D01*
X304870D01*
X304905Y428060D01*
X304948Y428067D01*
X304990Y428082D01*
X305103Y428110D01*
X305231Y428166D01*
X305302Y428202D01*
X305372Y428251D01*
X305443Y428301D01*
X305514Y428365D01*
X305585Y428436D01*
X305656Y428520D01*
X305663Y428528D01*
X305677Y428549D01*
X305705Y428584D01*
X305733Y428634D01*
X305769Y428697D01*
X305811Y428768D01*
X305861Y428853D01*
X305910Y428952D01*
X305953Y429059D01*
X306002Y429179D01*
X306045Y429306D01*
X306080Y429441D01*
X306109Y429590D01*
X306137Y429745D01*
X306151Y429908D01*
X306158Y430078D01*
Y430085D01*
Y430099D01*
Y430121D01*
X306151Y430156D01*
X306144Y430241D01*
X306130Y430347D01*
X306095Y430460D01*
X306052Y430581D01*
X305995Y430701D01*
X305910Y430807D01*
X305896Y430822D01*
X305868Y430850D01*
X305811Y430892D01*
X305741Y430942D01*
X305648Y430991D01*
X305549Y431034D01*
X305429Y431062D01*
X305294Y431076D01*
D02*
G37*
G36*
X315801Y429590D02*
X315794D01*
X315780Y429583D01*
X315752Y429575D01*
X315716Y429561D01*
X315667Y429547D01*
X315617Y429533D01*
X315504Y429505D01*
X315497D01*
X315476Y429497D01*
X315433D01*
X315376Y429483D01*
X315299Y429476D01*
X315207Y429469D01*
X315100Y429455D01*
X314966Y429441D01*
X314937D01*
X314909Y429434D01*
X314867D01*
X314824Y429427D01*
X314768Y429420D01*
X314640Y429405D01*
X314498Y429391D01*
X314364Y429363D01*
X314237Y429342D01*
X314180Y429328D01*
X314130Y429313D01*
X314123D01*
X314088Y429299D01*
X314045Y429278D01*
X313996Y429250D01*
X313939Y429214D01*
X313876Y429172D01*
X313819Y429122D01*
X313769Y429059D01*
X313762Y429051D01*
X313748Y429030D01*
X313734Y428995D01*
X313713Y428945D01*
X313684Y428889D01*
X313670Y428825D01*
X313656Y428754D01*
X313649Y428676D01*
Y428662D01*
Y428627D01*
X313656Y428577D01*
X313670Y428513D01*
X313699Y428436D01*
X313727Y428358D01*
X313776Y428280D01*
X313840Y428209D01*
X313847Y428202D01*
X313876Y428181D01*
X313925Y428152D01*
X313982Y428124D01*
X314067Y428089D01*
X314159Y428060D01*
X314272Y428039D01*
X314399Y428032D01*
X314456D01*
X314520Y428039D01*
X314605Y428053D01*
X314704Y428074D01*
X314810Y428103D01*
X314923Y428145D01*
X315037Y428202D01*
X315044D01*
X315051Y428209D01*
X315086Y428237D01*
X315143Y428273D01*
X315214Y428329D01*
X315292Y428400D01*
X315376Y428485D01*
X315454Y428577D01*
X315525Y428690D01*
Y428697D01*
X315532Y428705D01*
X315539Y428726D01*
X315553Y428747D01*
X315568Y428782D01*
X315589Y428825D01*
X315624Y428924D01*
X315674Y429051D01*
X315716Y429207D01*
X315759Y429384D01*
X315801Y429590D01*
D02*
G37*
G36*
X299319D02*
X299312D01*
X299298Y429583D01*
X299269Y429575D01*
X299234Y429561D01*
X299184Y429547D01*
X299135Y429533D01*
X299022Y429505D01*
X299015D01*
X298993Y429497D01*
X298951D01*
X298894Y429483D01*
X298816Y429476D01*
X298724Y429469D01*
X298618Y429455D01*
X298484Y429441D01*
X298455D01*
X298427Y429434D01*
X298384D01*
X298342Y429427D01*
X298285Y429420D01*
X298158Y429405D01*
X298016Y429391D01*
X297882Y429363D01*
X297754Y429342D01*
X297698Y429328D01*
X297648Y429313D01*
X297641D01*
X297606Y429299D01*
X297563Y429278D01*
X297514Y429250D01*
X297457Y429214D01*
X297393Y429172D01*
X297337Y429122D01*
X297287Y429059D01*
X297280Y429051D01*
X297266Y429030D01*
X297252Y428995D01*
X297230Y428945D01*
X297202Y428889D01*
X297188Y428825D01*
X297174Y428754D01*
X297167Y428676D01*
Y428662D01*
Y428627D01*
X297174Y428577D01*
X297188Y428513D01*
X297216Y428436D01*
X297245Y428358D01*
X297294Y428280D01*
X297358Y428209D01*
X297365Y428202D01*
X297393Y428181D01*
X297443Y428152D01*
X297499Y428124D01*
X297584Y428089D01*
X297676Y428060D01*
X297790Y428039D01*
X297917Y428032D01*
X297974D01*
X298038Y428039D01*
X298123Y428053D01*
X298222Y428074D01*
X298328Y428103D01*
X298441Y428145D01*
X298554Y428202D01*
X298561D01*
X298569Y428209D01*
X298604Y428237D01*
X298661Y428273D01*
X298731Y428329D01*
X298809Y428400D01*
X298894Y428485D01*
X298972Y428577D01*
X299043Y428690D01*
Y428697D01*
X299050Y428705D01*
X299057Y428726D01*
X299071Y428747D01*
X299085Y428782D01*
X299107Y428825D01*
X299142Y428924D01*
X299192Y429051D01*
X299234Y429207D01*
X299276Y429384D01*
X299319Y429590D01*
D02*
G37*
G36*
X321925Y431112D02*
X321883D01*
X321855Y431105D01*
X321812D01*
X321770Y431098D01*
X321663Y431076D01*
X321543Y431041D01*
X321409Y430984D01*
X321267Y430906D01*
X321203Y430864D01*
X321132Y430807D01*
X321125D01*
X321118Y430793D01*
X321076Y430751D01*
X321012Y430680D01*
X320934Y430588D01*
X320849Y430460D01*
X320764Y430305D01*
X320679Y430128D01*
X320609Y429915D01*
X322825D01*
Y429922D01*
Y429929D01*
X322832Y429972D01*
Y430021D01*
Y430064D01*
Y430071D01*
Y430085D01*
Y430114D01*
X322825Y430149D01*
Y430191D01*
X322817Y430241D01*
X322803Y430347D01*
X322768Y430475D01*
X322726Y430602D01*
X322662Y430722D01*
X322577Y430836D01*
X322563Y430850D01*
X322534Y430878D01*
X322478Y430921D01*
X322400Y430977D01*
X322308Y431027D01*
X322195Y431069D01*
X322067Y431098D01*
X321925Y431112D01*
D02*
G37*
G36*
X329742Y432535D02*
X329706D01*
X329657Y432528D01*
X329600Y432521D01*
X329522Y432514D01*
X329437Y432499D01*
X329338Y432471D01*
X329232Y432443D01*
X329119Y432407D01*
X328998Y432358D01*
X328871Y432294D01*
X328744Y432223D01*
X328616Y432138D01*
X328489Y432039D01*
X328361Y431926D01*
X328234Y431799D01*
X328227Y431791D01*
X328205Y431763D01*
X328177Y431721D01*
X328135Y431664D01*
X328085Y431593D01*
X328028Y431501D01*
X327972Y431402D01*
X327908Y431282D01*
X327844Y431147D01*
X327788Y430999D01*
X327731Y430843D01*
X327681Y430666D01*
X327646Y430482D01*
X327611Y430283D01*
X327589Y430071D01*
X327582Y429844D01*
Y429837D01*
Y429823D01*
Y429795D01*
Y429767D01*
X327589Y429724D01*
X327596Y429674D01*
X327611Y429554D01*
X327632Y429420D01*
X327667Y429271D01*
X327717Y429115D01*
X327781Y428959D01*
Y428952D01*
X327788Y428945D01*
X327802Y428924D01*
X327816Y428896D01*
X327866Y428825D01*
X327929Y428733D01*
X328014Y428634D01*
X328113Y428528D01*
X328234Y428428D01*
X328368Y428336D01*
X328375D01*
X328390Y428329D01*
X328411Y428315D01*
X328439Y428301D01*
X328474Y428287D01*
X328517Y428266D01*
X328623Y428223D01*
X328744Y428181D01*
X328885Y428145D01*
X329041Y428117D01*
X329204Y428110D01*
X329275D01*
X329310Y428117D01*
X329352Y428124D01*
X329459Y428138D01*
X329579Y428159D01*
X329713Y428195D01*
X329855Y428244D01*
X329997Y428308D01*
X330004D01*
X330011Y428315D01*
X330032Y428329D01*
X330060Y428343D01*
X330131Y428393D01*
X330223Y428450D01*
X330329Y428528D01*
X330443Y428627D01*
X330563Y428733D01*
X330676Y428860D01*
X330683Y428867D01*
X330691Y428874D01*
X330705Y428896D01*
X330726Y428924D01*
X330754Y428959D01*
X330783Y429002D01*
X330853Y429101D01*
X330924Y429228D01*
X331002Y429377D01*
X331080Y429547D01*
X331151Y429731D01*
Y429738D01*
X331158Y429752D01*
X331165Y429781D01*
X331179Y429823D01*
X331193Y429866D01*
X331207Y429922D01*
X331222Y429986D01*
X331243Y430050D01*
X331271Y430205D01*
X331299Y430382D01*
X331321Y430559D01*
X331328Y430751D01*
Y430758D01*
Y430786D01*
Y430829D01*
X331321Y430885D01*
X331313Y430956D01*
X331306Y431034D01*
X331292Y431126D01*
X331271Y431218D01*
X331214Y431423D01*
X331179Y431530D01*
X331136Y431643D01*
X331080Y431749D01*
X331016Y431855D01*
X330945Y431954D01*
X330868Y432046D01*
X330860Y432053D01*
X330846Y432068D01*
X330818Y432089D01*
X330790Y432124D01*
X330740Y432160D01*
X330691Y432202D01*
X330627Y432245D01*
X330556Y432294D01*
X330478Y432337D01*
X330393Y432379D01*
X330301Y432422D01*
X330202Y432457D01*
X330096Y432492D01*
X329982Y432514D01*
X329862Y432528D01*
X329742Y432535D01*
D02*
G37*
%LPD*%
D10*
X363646Y401697D02*
G03*
X363646Y401697I-492J0D01*
G01*
X347732Y389500D02*
G03*
X347732Y389500I-492J0D01*
G01*
X319000Y334780D02*
G03*
X319000Y334780I-492J0D01*
G01*
D11*
X382138Y355350D02*
X385862D01*
X382138Y361650D02*
X385862D01*
X413650Y393531D02*
Y397468D01*
X407350Y393531D02*
Y397468D01*
X418850Y393531D02*
Y397468D01*
X425150Y393531D02*
Y397468D01*
X358650Y399532D02*
Y403469D01*
X352350Y399532D02*
Y403469D01*
X359158Y368874D02*
Y380126D01*
X351842Y368874D02*
Y380126D01*
X374945Y406500D02*
X381413D01*
Y404531D02*
Y406500D01*
Y404531D02*
X386587D01*
Y406500D01*
X393055D01*
Y366500D02*
Y406500D01*
X374945Y366500D02*
X393055D01*
X374945D02*
Y406500D01*
X288185Y407217D02*
X344878D01*
X288185Y371783D02*
Y407217D01*
X344878Y398949D02*
Y407217D01*
X288185Y371783D02*
X321847D01*
X338776D02*
X344878D01*
Y380051D01*
X297850Y350638D02*
Y354362D01*
X304150Y350638D02*
Y354362D01*
X318311Y340094D02*
X344689D01*
X318311Y351905D02*
X344689D01*
X318311Y340094D02*
Y351905D01*
X344689Y340094D02*
Y351905D01*
D12*
X442500Y322000D02*
Y336995D01*
X452497Y322000D01*
Y336995D01*
X457495Y322000D02*
X462494D01*
X459994D01*
Y331997D01*
X457495D01*
X470498Y334000D02*
X465500D01*
X470498Y338998D01*
Y340248D01*
X469249Y341498D01*
X466750D01*
X465500Y340248D01*
D13*
X411000Y362498D02*
Y361498D01*
X410000D01*
X411999D01*
X411000D01*
Y358499D01*
X411999Y357499D01*
X417997D02*
X415998D01*
X414998Y358499D01*
Y360498D01*
X415998Y361498D01*
X417997D01*
X418997Y360498D01*
Y359499D01*
X414998D01*
X420996Y357499D02*
Y361498D01*
X421996D01*
X422996Y360498D01*
Y357499D01*
Y360498D01*
X423995Y361498D01*
X424995Y360498D01*
Y357499D01*
X426995Y355500D02*
Y361498D01*
X429993D01*
X430993Y360498D01*
Y358499D01*
X429993Y357499D01*
X426995D01*
X435992D02*
X433992D01*
X432993Y358499D01*
Y360498D01*
X433992Y361498D01*
X435992D01*
X436991Y360498D01*
Y359499D01*
X432993D01*
X438991Y361498D02*
Y357499D01*
Y359499D01*
X439990Y360498D01*
X440990Y361498D01*
X441990D01*
X445988D02*
X447988D01*
X448987Y360498D01*
Y357499D01*
X445988D01*
X444989Y358499D01*
X445988Y359499D01*
X448987D01*
X451986Y362498D02*
Y361498D01*
X450987D01*
X452986D01*
X451986D01*
Y358499D01*
X452986Y357499D01*
X455985Y361498D02*
Y358499D01*
X456985Y357499D01*
X459984D01*
Y361498D01*
X461983D02*
Y357499D01*
Y359499D01*
X462983Y360498D01*
X463982Y361498D01*
X464982D01*
X470980Y357499D02*
X468981D01*
X467981Y358499D01*
Y360498D01*
X468981Y361498D01*
X470980D01*
X471980Y360498D01*
Y359499D01*
X467981D01*
X410500Y346000D02*
X413499Y348999D01*
X410500Y351998D01*
X419497Y346000D02*
X415498D01*
X419497Y349999D01*
Y350998D01*
X418497Y351998D01*
X416498D01*
X415498Y350998D01*
X425495Y351998D02*
X421496D01*
Y348999D01*
X423496Y349999D01*
X424496D01*
X425495Y348999D01*
Y347000D01*
X424496Y346000D01*
X422496D01*
X421496Y347000D01*
X437491Y350998D02*
X436492Y351998D01*
X434492D01*
X433493Y350998D01*
Y347000D01*
X434492Y346000D01*
X436492D01*
X437491Y347000D01*
X410000Y372498D02*
Y366500D01*
X413999D01*
X419997Y372498D02*
X415998D01*
Y366500D01*
X419997D01*
X415998Y369499D02*
X417997D01*
X421996Y372498D02*
Y366500D01*
X424995D01*
X425995Y367500D01*
Y371498D01*
X424995Y372498D01*
X421996D01*
X434992Y366500D02*
X436991D01*
X437991Y367500D01*
Y369499D01*
X436991Y370499D01*
X434992D01*
X433992Y369499D01*
Y367500D01*
X434992Y366500D01*
X439990D02*
Y370499D01*
X442989D01*
X443989Y369499D01*
Y366500D01*
X451986D02*
X453986D01*
X452986D01*
Y370499D01*
X451986D01*
X457984Y366500D02*
Y371498D01*
Y369499D01*
X456985D01*
X458984D01*
X457984D01*
Y371498D01*
X458984Y372498D01*
X429000Y352500D02*
Y353500D01*
X430000D01*
Y352500D01*
X429000D01*
D14*
X291000Y444997D02*
X295998D01*
X293499D01*
Y437499D01*
X302246D02*
X299747D01*
X298498Y438749D01*
Y441248D01*
X299747Y442498D01*
X302246D01*
X303496Y441248D01*
Y439998D01*
X298498D01*
X305995Y437499D02*
Y442498D01*
X307245D01*
X308494Y441248D01*
Y437499D01*
Y441248D01*
X309744Y442498D01*
X310994Y441248D01*
Y437499D01*
X313493Y435000D02*
Y442498D01*
X317242D01*
X318491Y441248D01*
Y438749D01*
X317242Y437499D01*
X313493D01*
X324739D02*
X322240D01*
X320990Y438749D01*
Y441248D01*
X322240Y442498D01*
X324739D01*
X325989Y441248D01*
Y439998D01*
X320990D01*
X328488Y442498D02*
Y437499D01*
Y439998D01*
X329737Y441248D01*
X330987Y442498D01*
X332237D01*
X337235D02*
X339734D01*
X340984Y441248D01*
Y437499D01*
X337235D01*
X335985Y438749D01*
X337235Y439998D01*
X340984D01*
X344733Y443747D02*
Y442498D01*
X343483D01*
X345982D01*
X344733D01*
Y438749D01*
X345982Y437499D01*
X349731Y442498D02*
Y438749D01*
X350981Y437499D01*
X354729D01*
Y442498D01*
X357229D02*
Y437499D01*
Y439998D01*
X358478Y441248D01*
X359728Y442498D01*
X360977D01*
X368475Y437499D02*
X365976D01*
X364726Y438749D01*
Y441248D01*
X365976Y442498D01*
X368475D01*
X369725Y441248D01*
Y439998D01*
X364726D01*
X379721Y444997D02*
X382221D01*
X380971D01*
Y437499D01*
X379721D01*
X382221D01*
X385969D02*
Y442498D01*
X389718D01*
X390968Y441248D01*
Y437499D01*
X398465Y444997D02*
Y437499D01*
X394717D01*
X393467Y438749D01*
Y441248D01*
X394717Y442498D01*
X398465D01*
X400964Y437499D02*
X403464D01*
X402214D01*
Y442498D01*
X400964D01*
X412211D02*
X408462D01*
X407212Y441248D01*
Y438749D01*
X408462Y437499D01*
X412211D01*
X415960Y442498D02*
X418459D01*
X419708Y441248D01*
Y437499D01*
X415960D01*
X414710Y438749D01*
X415960Y439998D01*
X419708D01*
X423457Y443747D02*
Y442498D01*
X422208D01*
X424707D01*
X423457D01*
Y438749D01*
X424707Y437499D01*
X429705D02*
X432204D01*
X433454Y438749D01*
Y441248D01*
X432204Y442498D01*
X429705D01*
X428456Y441248D01*
Y438749D01*
X429705Y437499D01*
X435953Y442498D02*
Y437499D01*
Y439998D01*
X437203Y441248D01*
X438452Y442498D01*
X439702D01*
D15*
X303499Y329502D02*
X297501D01*
Y332501D01*
X298501Y333500D01*
X300500D01*
X301500Y332501D01*
Y329502D01*
Y331501D02*
X303499Y333500D01*
Y339498D02*
Y335500D01*
X299500Y339498D01*
X298501D01*
X297501Y338499D01*
Y336499D01*
X298501Y335500D01*
X309001Y330502D02*
X314999D01*
Y333501D01*
X313999Y334500D01*
X310001D01*
X309001Y333501D01*
Y330502D01*
X314999Y340498D02*
Y336500D01*
X311000Y340498D01*
X310001D01*
X309001Y339499D01*
Y337499D01*
X310001Y336500D01*
X379002Y415499D02*
Y410501D01*
X380001Y409501D01*
X382001D01*
X383000Y410501D01*
Y415499D01*
X388998Y409501D02*
X385000D01*
X388998Y413500D01*
Y414499D01*
X387999Y415499D01*
X385999D01*
X385000Y414499D01*
X315501Y327499D02*
Y322501D01*
X316501Y321501D01*
X318500D01*
X319500Y322501D01*
Y327499D01*
X321499Y321501D02*
X323499D01*
X322499D01*
Y327499D01*
X321499Y326499D01*
X350502Y414001D02*
Y419999D01*
X353501D01*
X354500Y418999D01*
Y417000D01*
X353501Y416000D01*
X350502D01*
X352501D02*
X354500Y414001D01*
X360498Y419999D02*
X358499Y418999D01*
X356500Y417000D01*
Y415001D01*
X357499Y414001D01*
X359499D01*
X360498Y415001D01*
Y416000D01*
X359499Y417000D01*
X356500D01*
X350502Y358501D02*
Y364499D01*
X353501D01*
X354500Y363499D01*
Y361500D01*
X353501Y360500D01*
X350502D01*
X352501D02*
X354500Y358501D01*
X360498Y364499D02*
X356500D01*
Y361500D01*
X358499Y362500D01*
X359499D01*
X360498Y361500D01*
Y359501D01*
X359499Y358501D01*
X357499D01*
X356500Y359501D01*
X429502Y392501D02*
Y398499D01*
X432501D01*
X433500Y397499D01*
Y395500D01*
X432501Y394500D01*
X429502D01*
X431501D02*
X433500Y392501D01*
X438499D02*
Y398499D01*
X435500Y395500D01*
X439498D01*
X405502Y407501D02*
Y413499D01*
X408501D01*
X409500Y412499D01*
Y410500D01*
X408501Y409500D01*
X405502D01*
X407501D02*
X409500Y407501D01*
X411500Y412499D02*
X412499Y413499D01*
X414499D01*
X415498Y412499D01*
Y411500D01*
X414499Y410500D01*
X413499D01*
X414499D01*
X415498Y409500D01*
Y408501D01*
X414499Y407501D01*
X412499D01*
X411500Y408501D01*
X402999Y354501D02*
X397001D01*
Y357500D01*
X398001Y358500D01*
X400000D01*
X401000Y357500D01*
Y354501D01*
Y356501D02*
X402999Y358500D01*
Y360499D02*
Y362499D01*
Y361499D01*
X397001D01*
X398001Y360499D01*
X293000Y415499D02*
X291001D01*
X292000D01*
Y410501D01*
X291001Y409501D01*
X290001D01*
X289001Y410501D01*
X294999Y409501D02*
X296999D01*
X295999D01*
Y415499D01*
X294999Y414499D01*
X397001Y340001D02*
X402999D01*
Y343000D01*
X401999Y344000D01*
X398001D01*
X397001Y343000D01*
Y340001D01*
X402999Y345999D02*
Y347999D01*
Y346999D01*
X397001D01*
X398001Y345999D01*
D16*
X393843Y344000D02*
D03*
D17*
X312000Y342657D02*
D03*
M02*
