G04*
G04 #@! TF.GenerationSoftware,Altium Limited,Altium Designer,24.8.2 (39)*
G04*
G04 Layer_Color=255*
%FSLAX25Y25*%
%MOIN*%
G70*
G04*
G04 #@! TF.SameCoordinates,7DA90572-2472-42F9-BF80-4CDDFEAFDCCF*
G04*
G04*
G04 #@! TF.FilePolarity,Positive*
G04*
G01*
G75*
%ADD18R,0.05339X0.07316*%
%ADD19R,0.05512X0.06299*%
%ADD20R,0.07087X0.04921*%
%ADD21R,0.04166X0.05142*%
%ADD22R,0.07316X0.05339*%
%ADD23R,0.06299X0.05512*%
%ADD24R,0.03543X0.08268*%
%ADD25R,0.12598X0.08268*%
%ADD31C,0.04921*%
%ADD32R,0.04921X0.04921*%
%ADD38R,0.13780X0.05906*%
%ADD39R,0.05906X0.13780*%
%ADD40R,0.05906X0.15748*%
D18*
X390008Y358500D02*
D03*
X377992D02*
D03*
D19*
X389906Y344000D02*
D03*
X378095D02*
D03*
D20*
X410500Y401504D02*
D03*
Y389496D02*
D03*
X422000Y389496D02*
D03*
Y401504D02*
D03*
X355500Y407504D02*
D03*
Y395496D02*
D03*
D21*
Y371445D02*
D03*
Y377555D02*
D03*
D22*
X301000Y346492D02*
D03*
Y358508D02*
D03*
D23*
X312000Y346595D02*
D03*
Y358405D02*
D03*
D24*
X322445Y334780D02*
D03*
X331500D02*
D03*
X340555D02*
D03*
D25*
X331500Y357221D02*
D03*
D31*
X399630Y401500D02*
D03*
Y391500D02*
D03*
Y381500D02*
D03*
Y371500D02*
D03*
X368370D02*
D03*
Y381500D02*
D03*
Y391500D02*
D03*
D32*
Y401500D02*
D03*
D38*
X330311Y370996D02*
D03*
D39*
X318500Y389500D02*
D03*
D40*
X342122D02*
D03*
M02*
