G04*
G04 #@! TF.GenerationSoftware,Altium Limited,Altium Designer,24.8.2 (39)*
G04*
G04 Layer_Color=2752767*
%FSLAX25Y25*%
%MOIN*%
G70*
G04*
G04 #@! TF.SameCoordinates,7DA90572-2472-42F9-BF80-4CDDFEAFDCCF*
G04*
G04*
G04 #@! TF.FilePolarity,Positive*
G04*
G01*
G75*
%ADD46C,0.00500*%
%ADD47C,0.00667*%
D46*
X399630Y399500D02*
X397630Y403500D01*
X401630D01*
X399630Y399500D01*
Y389500D02*
X397630Y393500D01*
X401630D01*
X399630Y389500D01*
Y379500D02*
X397630Y383500D01*
X401630D01*
X399630Y379500D01*
Y369500D02*
X397630Y373500D01*
X401630D01*
X399630Y369500D01*
X368370D02*
X366370Y373500D01*
X370370D01*
X368370Y369500D01*
Y379500D02*
X366370Y383500D01*
X370370D01*
X368370Y379500D01*
Y389500D02*
X366370Y393500D01*
X370370D01*
X368370Y389500D01*
Y399500D02*
X366370Y403500D01*
X370370D01*
X368370Y399500D01*
X328311Y368996D02*
Y372996D01*
X332311D01*
Y368996D01*
X328311D01*
X316500Y387500D02*
Y391500D01*
X320500D01*
Y387500D01*
X316500D01*
X357000Y342000D02*
X358000Y343000D01*
X359000D01*
X358000Y344000D01*
X359000Y345000D01*
X358000D01*
X357000Y346000D01*
X356000Y345000D01*
X355000D01*
X356000Y344000D01*
X355000Y343000D01*
X356000D01*
X357000Y342000D01*
X419000Y329500D02*
X420000Y330500D01*
X421000D01*
X420000Y331500D01*
X421000Y332500D01*
X420000D01*
X419000Y333500D01*
X418000Y332500D01*
X417000D01*
X418000Y331500D01*
X417000Y330500D01*
X418000D01*
X419000Y329500D01*
X457000Y431000D02*
X458000Y432000D01*
X459000D01*
X458000Y433000D01*
X459000Y434000D01*
X458000D01*
X457000Y435000D01*
X456000Y434000D01*
X455000D01*
X456000Y433000D01*
X455000Y432000D01*
X456000D01*
X457000Y431000D01*
D47*
X344122Y389500D02*
G03*
X344122Y389500I-2000J0D01*
G01*
M02*
