G04*
G04 #@! TF.GenerationSoftware,Altium Limited,Altium Designer,24.8.2 (39)*
G04*
G04 Layer_Color=128*
%FSLAX25Y25*%
%MOIN*%
G70*
G04*
G04 #@! TF.SameCoordinates,7DA90572-2472-42F9-BF80-4CDDFEAFDCCF*
G04*
G04*
G04 #@! TF.FilePolarity,Positive*
G04*
G01*
G75*
%ADD46C,0.00500*%
D46*
X398153Y401500D02*
X401106D01*
X399630Y400024D02*
Y402976D01*
X398153Y391500D02*
X401106D01*
X399630Y390024D02*
Y392976D01*
X398153Y381500D02*
X401106D01*
X399630Y380024D02*
Y382976D01*
X398153Y371500D02*
X401106D01*
X399630Y370024D02*
Y372976D01*
X366894Y371500D02*
X369847D01*
X368370Y370024D02*
Y372976D01*
X366894Y381500D02*
X369847D01*
X368370Y380024D02*
Y382976D01*
X366894Y391500D02*
X369847D01*
X368370Y390024D02*
Y392976D01*
X366894Y401500D02*
X369847D01*
X368370Y400024D02*
Y402976D01*
X328343Y370996D02*
X332279D01*
X330311Y369028D02*
Y372965D01*
X316531Y389500D02*
X320468D01*
X318500Y387531D02*
Y391469D01*
X340154Y389500D02*
X344091D01*
X342122Y387531D02*
Y391469D01*
X351000Y344000D02*
X363000D01*
X357000Y338000D02*
Y350000D01*
X413000Y331500D02*
X425000D01*
X419000Y325500D02*
Y337500D01*
X451000Y433000D02*
X463000D01*
X457000Y427000D02*
Y439000D01*
M02*
