G04*
G04 #@! TF.GenerationSoftware,Altium Limited,Altium Designer,24.8.2 (39)*
G04*
G04 Layer_Color=32768*
%FSLAX25Y25*%
%MOIN*%
G70*
G04*
G04 #@! TF.SameCoordinates,7DA90572-2472-42F9-BF80-4CDDFEAFDCCF*
G04*
G04*
G04 #@! TF.FilePolarity,Positive*
G04*
G01*
G75*
%ADD11C,0.00787*%
%ADD42C,0.00394*%
%ADD45C,0.00197*%
D11*
X373354Y352874D02*
Y364126D01*
Y352874D02*
X394646D01*
Y364126D01*
X373354D02*
X394646D01*
X351448Y382095D02*
X359552D01*
X351448Y366905D02*
Y382095D01*
Y366905D02*
X359552D01*
Y382095D01*
X365516Y366106D02*
Y406894D01*
Y366106D02*
X402484D01*
Y406894D01*
X365516D02*
X402484D01*
X295374Y363146D02*
X306626D01*
X295374Y341854D02*
Y363146D01*
Y341854D02*
X306626D01*
Y363146D01*
D42*
X410500Y393531D02*
Y397468D01*
X408532Y395500D02*
X412468D01*
X422000Y393531D02*
Y397468D01*
X420031Y395500D02*
X423969D01*
X355500Y399532D02*
Y403469D01*
X353532Y401500D02*
X357469D01*
X330311Y387531D02*
Y391469D01*
X328343Y389500D02*
X332279D01*
X331500Y344032D02*
Y347969D01*
X329532Y346000D02*
X333469D01*
D45*
X393449Y339866D02*
Y348134D01*
X374551D02*
X393449D01*
X374551Y339866D02*
Y348134D01*
Y339866D02*
X393449D01*
X404988Y405933D02*
X416012D01*
X404988Y385067D02*
X416012D01*
Y405933D01*
X404988Y385067D02*
Y405933D01*
X416488Y385067D02*
X427512D01*
X416488Y405933D02*
X427512D01*
X416488Y385067D02*
Y405933D01*
X427512Y385067D02*
Y405933D01*
X349988Y411933D02*
X361012D01*
X349988Y391067D02*
X361012D01*
Y411933D01*
X349988Y391067D02*
Y411933D01*
X287791Y367650D02*
Y407610D01*
X345468D01*
X287791Y367650D02*
X345468D01*
Y407610D01*
X307866Y343051D02*
X316134D01*
Y361949D01*
X307866D02*
X316134D01*
X307866Y343051D02*
Y361949D01*
X317917Y330252D02*
X345083D01*
X317917Y361748D02*
X345083D01*
X317917Y330252D02*
Y361748D01*
X345083Y330252D02*
Y361748D01*
M02*
